<?xml version="1.0" standalone="no"?> <!DOCTYPE svg PUBLIC "-//W3C//DTD SVG 1.0//EN" "http://www.w3.org/TR/2001/REC-SVG-20010904/DTD/svg10.dtd" > <svg xmlns="http://www.w3.org/2000/svg" width="100%" height="100%">
<defs >
<font horiz-adv-x="573" ><font-face
    font-family="Publico Headline Black"
    units-per-em="1000"
    panose-1="2 4 10 2 6 5 4 13 2 3"
    ascent="801"
    descent="-199"
    alphabetic="0" />
<missing-glyph horiz-adv-x="500" />
<glyph unicode=" " glyph-name="space" horiz-adv-x="214" />
<glyph unicode="!" glyph-name="exclam" horiz-adv-x="294" d="M118 -8Q80 -8 52 20T24 86Q24 126 52 153T118 180T183 153T211 86Q211 48 183 20T118 -8ZM121 226L91 557Q78 703 211 703Q253 703 281 685T318 628T299 533L156 226H121Z" />
<glyph unicode="&quot;" glyph-name="quotedbl" horiz-adv-x="368" d="M114 436L83 598Q72 657 100 684T175 709Q203 707 220 695T241 656T221 589L138 436H114ZM298 436L268 594Q256 652 284 681T359 710Q387 710 405 699T427 662T408 594L322 436H298Z" />
<glyph unicode="#" glyph-name="numbersign" horiz-adv-x="453" d="M41 0L86 171H0L31 295H119L148 401H61L94 525H183L226 693H285L240 525H345L391 693H449L404 525H493L460 401H371L343 295H432L399 171H309L264 0H205L251 171H145L99 0H41ZM178 295H284L312
401H207L178 295Z" />
<glyph unicode="$" glyph-name="dollar" horiz-adv-x="533" d="M158 -110L175 -11Q86 -6 35 28T-17 117Q-17 152 4 170T63 188Q103 188 122 172T147 110Q151 76 158 58T183 33L224 262Q138 309 100 357T61 469Q61 563 134 629T324 704L336 769H383L371 704Q464
701 518 667T573 576Q573 541 552 523T493 505Q453 505 434 521T409 583Q409 586 407 598T405 612T403 624T400 635T395 643T387 651T377 656T364 661L326 446Q328 444 334 442Q430 394 470 348T511 229Q511 139 433 67T222 -11L205 -110H158ZM337 132Q337 169
321 193T267 239L229 28Q278 33 307 60T337 132ZM220 570Q220 511 283 470L317 665Q279 663 250 639T220 570Z" />
<glyph unicode="%" glyph-name="percent" horiz-adv-x="772" d="M182 447Q182 379 216 379Q255 379 277 457T300 602T266 669Q227 669 205 590T182 447ZM213 342Q146 342 100 381T54 487Q54 583 122 644T269 706Q335 706 381 668T428 564Q428 466 361 404T213
342ZM42 -50L668 714H740L115 -50H42ZM504 92Q504 24 538 24Q577 24 599 102T622 247T588 314Q549 314 527 235T504 92ZM376 132Q376 228 444 289T591 351Q657 351 703 313T750 209Q750 111 683 49T535 -13Q468 -13 422 26T376 132Z" />
<glyph unicode="&amp;" glyph-name="ampersand" horiz-adv-x="757" d="M754 391L749 358L726 352Q686 342 649 288Q602 216 561 171Q594 126 630 84Q660 49 690 40L715 33L710 0H447Q430 18 416 37Q341 -12 241 -12Q135 -12 75 36T14 159Q14 236 69 289T213 366Q193
418 193 477Q193 577 259 641T428 705Q509 705 550 667T592 581Q592 465 409 403Q488 276 535 209Q584 277 584 316Q584 339 552 350L527 358L532 391H754ZM320 54Q357 54 388 71Q303 184 229 331L226 336Q195 296 195 215Q195 132 230 93T320 54ZM356 562Q356
499 392 432Q476 481 476 575Q476 616 463 640T424 665Q392 665 374 639T356 562Z" />
<glyph unicode="&apos;" glyph-name="quotesingle" horiz-adv-x="184" d="M114 436L83 594Q72 652 100 681T175 710Q203 710 221 699T243 662T224 594L138 436H114Z" />
<glyph unicode="(" glyph-name="parenleft" horiz-adv-x="366" d="M261 -140Q74 41 74 246Q74 331 105 410T189 552T297 661T417 747L438 729Q323 634 258 499T192 214Q192 7 286 -122L261 -140Z" />
<glyph unicode=")" glyph-name="parenright" horiz-adv-x="366" d="M105 747Q292 566 292 361Q292 276 261 197T177 55T69 -54T-51 -140L-72 -122Q44 -27 110 108T176 393Q176 597 80 729L105 747Z" />
<glyph unicode="*" glyph-name="asterisk" horiz-adv-x="340" d="M108 413Q95 426 92 442T100 476T140 506L213 535L135 539Q90 540 76 563T75 613Q83 629 96 637T130 641T171 612L219 552L198 627Q186 671 204 691T251 707Q280 703 290 681T279 615L238 550L301
593Q342 616 365 606T393 567T378 520T315 512L239 532L300 482Q335 451 333 426T305 386Q282 371 256 386T227 444L224 522L197 449Q182 408 154 400T108 413Z" />
<glyph unicode="+" glyph-name="plus" horiz-adv-x="471" d="M213 130V307H43V370H213V547H284V370H454V307H284V130H213Z" />
<glyph unicode="," glyph-name="comma" horiz-adv-x="247" d="M-25 -113L-32 -88Q81 -38 92 33Q79 24 63 24Q37 24 18 43T-2 98Q-2 134 24 156T85 179Q128 179 156 149T184 72Q184 3 126 -46T-25 -113Z" />
<glyph unicode="-" glyph-name="hyphen" horiz-adv-x="273" d="M18 231L41 345H264L241 231H18Z" />
<glyph unicode="." glyph-name="period" horiz-adv-x="239" d="M122 -8T85 -8T21 20T-5 86Q-4 126 25 153T92 180T156 153T182 86Q180 48 151 20Z" />
<glyph unicode="/" glyph-name="slash" horiz-adv-x="393" d="M-68 -130L394 734H459L-3 -130H-68Z" />
<glyph unicode="0" glyph-name="zero" horiz-adv-x="680" d="M301 -13Q183 -13 106 60T29 261Q29 367 65 454T159 595T282 676T410 705Q526 705 603 633T681 432Q681 326 645 239T551 98T428 16T301 -13ZM307 30Q352 30 387 90T440 235T468 393T477 512Q477 598
459 630T404 662Q360 662 325 606T271 467T243 309T233 181Q233 94 251 62T307 30Z" />
<glyph unicode="1" glyph-name="one" horiz-adv-x="414" d="M-29 0L-23 33L10 40Q45 47 55 59T74 120L143 515L65 531L71 568Q154 580 233 616T361 702L393 694L292 120Q284 71 289 59T326 40L358 33L353 0H-29Z" />
<glyph unicode="2" glyph-name="two" horiz-adv-x="540" d="M-36 0L-19 96Q123 196 206 273Q282 345 318 418T354 584Q354 663 287 663Q269 663 261 654T249 616Q238 546 218 523T153 499T89 520T69 574Q69 631 134 668T303 705Q416 705 485 660T554 529Q554 479
529 432T466 350T367 276T254 213T126 153V147H371Q405 147 421 160T468 226H503L455 0H-36Z" />
<glyph unicode="3" glyph-name="three" horiz-adv-x="570" d="M212 -13Q105 -13 47 19T-11 114Q-11 151 10 170T68 190Q111 190 129 169T152 83Q154 49 161 40T195 30Q254 30 287 96T321 239Q321 294 298 315T228 337H183L192 385H229Q271 385 299 400T339 443T356
500T360 570Q360 662 297 662Q260 662 256 631Q248 569 231 544T169 518Q133 518 113 535T92 581Q92 636 152 670T314 705Q423 705 488 666T553 554Q553 409 352 371V367Q435 357 484 319T534 211Q534 111 449 49T212 -13Z" />
<glyph unicode="4" glyph-name="four" horiz-adv-x="599" d="M154 0L159 33L189 40Q223 48 233 59T252 120L264 188H-2L9 250L423 693H567L492 269H585L568 188H478L466 120Q459 71 465 59T499 40L530 33L525 0H154ZM100 269H278L319 505H316L100 274V269Z" />
<glyph unicode="5" glyph-name="five" horiz-adv-x="548" d="M194 -13Q-7 -13 -7 111Q-7 146 13 166T69 187Q112 187 129 168T148 96Q149 56 159 43T202 30Q250 30 289 71T328 183Q328 296 188 296Q117 296 76 280L65 290L166 693H461Q485 693 496 702T532 747H567L522
547H182L156 439Q201 455 276 455Q385 455 451 402T518 261Q518 145 422 66T194 -13Z" />
<glyph unicode="6" glyph-name="six" horiz-adv-x="623" d="M283 -13Q174 -13 101 53T27 244Q27 348 67 437T170 584T310 673T460 705Q552 705 597 676T643 596Q643 523 565 523Q519 523 501 545T481 624Q480 647 472 655T442 663Q392 663 342 591T258 373Q323
411 405 411Q490 411 544 367T599 244Q599 137 513 62T283 -13ZM280 30Q308 30 330 55T363 118T381 194T387 265Q387 310 371 328T317 347Q287 347 251 332Q223 207 223 117Q223 30 280 30Z" />
<glyph unicode="7" glyph-name="seven" horiz-adv-x="516" d="M52 0Q105 160 209 289T471 544H183Q149 544 134 530T84 456H51L107 693H584L567 600Q441 465 377 322T284 0H52Z" />
<glyph unicode="8" glyph-name="eight" horiz-adv-x="592" d="M263 -13Q142 -13 72 32T1 148Q1 207 49 250T180 318V322Q90 379 90 476Q90 547 132 600T236 679T368 705Q463 705 528 666T594 556Q594 504 549 466T434 405V401Q562 331 562 232Q562 127 476 57T263
-13ZM271 30Q327 30 364 60T402 144Q402 182 366 209T212 299Q179 265 165 235T150 152Q150 97 180 64T271 30ZM394 425Q458 482 458 554Q458 662 360 662Q310 662 278 633T245 558Q245 523 278 495T394 425Z" />
<glyph unicode="9" glyph-name="nine" horiz-adv-x="623" d="M196 -13Q10 -13 10 96Q10 169 88 169Q134 169 154 147T176 68Q177 45 184 37T211 29Q269 29 320 103T393 319Q328 281 248 281Q163 281 110 324T57 447Q57 551 143 628T374 705Q485 705 556 641T628
456Q628 356 591 267T492 118T353 22T196 -13ZM334 346Q366 346 400 360Q428 482 428 568Q428 662 370 662Q342 662 320 638T287 575T270 500T264 429Q264 384 280 365T334 346Z" />
<glyph unicode=":" glyph-name="colon" horiz-adv-x="241" d="M94 -8Q56 -8 28 20T0 86Q0 126 28 153T94 180T159 153T187 86Q187 48 159 20T94 -8ZM174 266T137 266T72 294T43 360Q43 400 71 427T137 454T202 427T230 360Q230 322 202 294Z" />
<glyph unicode=";" glyph-name="semicolon" horiz-adv-x="243" d="M-20 -113L-27 -88Q86 -38 97 33Q84 24 68 24Q42 24 23 43T3 98Q3 134 29 156T90 179Q133 179 161 149T189 72Q189 3 131 -46T-20 -113ZM174 266T137 266T72 294T43 360Q43 400 71 427T137 454T202
427T230 360Q230 322 202 294Z" />
<glyph unicode="&lt;" glyph-name="less" horiz-adv-x="481" d="M451 117L40 302V365L451 550V480L111 334L451 189V117Z" />
<glyph unicode="=" glyph-name="equal" horiz-adv-x="531" d="M41 382V445H512V382H41ZM41 232V295H512V232H41Z" />
<glyph unicode="&gt;" glyph-name="greater" horiz-adv-x="481" d="M50 117V189L390 334L50 480V550L461 365V302L50 117Z" />
<glyph unicode="?" glyph-name="question" horiz-adv-x="489" d="M133 226L165 410Q192 416 210 421T252 439T292 471T317 520T328 592Q328 626 312 643T272 660Q257 660 250 650T238 612Q230 563 210 545T151 526Q78 526 78 589Q78 642 124 673T258 705Q378 705
444 658T511 534Q511 428 426 368T203 296L191 226H133ZM190 -8T153 -8T88 20T59 86Q59 126 87 153T153 180T218 153T246 86Q246 48 218 20Z" />
<glyph unicode="@" glyph-name="at" horiz-adv-x="911" d="M408 -152Q234 -152 125 -58T16 201Q16 327 86 437T271 612T510 677Q686 677 791 590T896 370Q896 287 869 220T796 113T698 51T589 29Q529 29 503 52T473 117H470Q443 79 404 55T320 31Q267 31 238 66T208
169Q208 302 298 401T508 501Q588 501 647 457H650L707 495L723 487Q711 463 688 370L640 173Q628 126 634 105T667 83Q720 83 765 154T811 345Q811 477 731 557T506 638Q435 638 367 610T242 529T151 395T116 215Q116 66 200 -21T440 -108Q568 -108 683 -54L674
-93Q631 -116 558 -134T408 -152ZM413 124Q420 124 426 126T435 130T444 138T452 147T461 159T470 172L531 433Q521 461 498 461Q456 461 415 368T374 181Q374 124 413 124Z" />
<glyph unicode="A" glyph-name="A" horiz-adv-x="685" d="M-46 0L-40 33L-19 39Q6 47 21 64T69 140L383 693H503L584 141Q593 84 602 64T630 38L647 33L642 0H283L288 33L317 40Q365 51 365 85Q366 103 359 160L354 205H169L144 159Q112 99 112 77Q112 50 147
40L171 33L166 0H-46ZM318 479L196 255H348L323 479H318Z" />
<glyph unicode="B" glyph-name="B" horiz-adv-x="674" d="M-33 0L-27 33L0 40Q30 48 39 60T58 120L138 573Q145 621 140 633T108 653L83 660L89 693H417Q668 693 668 542Q668 398 460 370V364Q552 353 597 316T643 210Q643 109 565 55T341 0H-33ZM318 49Q368 49
399 105T431 249Q431 300 411 320T342 341H311L270 107Q265 79 274 64T318 49ZM319 388H349Q465 388 465 561Q465 644 404 644Q378 644 364 637L319 388Z" />
<glyph unicode="C" glyph-name="C" horiz-adv-x="618" d="M354 -12Q211 -12 122 66T32 277Q32 359 58 430T128 550T229 635T348 688T473 705Q580 705 645 678L627 470H593Q566 558 542 598Q522 632 502 646T453 660Q403 660 362 611T298 485T262 329T249 176Q249
98 275 66T359 33T472 103Q487 122 561 238H595L546 19Q453 -12 354 -12Z" />
<glyph unicode="D" glyph-name="D" horiz-adv-x="735" d="M-33 0L-27 33L0 40Q30 48 40 60T58 120L138 573Q145 621 140 633T108 653L83 660L89 693H424Q577 693 656 619T736 417Q736 300 680 204T531 54T332 0H-33ZM324 50Q384 50 429 112T497 274T520 495Q520
643 416 643Q386 643 366 634L279 140Q270 93 280 72T324 50Z" />
<glyph unicode="E" glyph-name="E" horiz-adv-x="649" d="M-33 0L-27 33L0 40Q30 48 40 60T58 120L138 573Q145 621 140 633T108 653L83 660L89 693H644L624 478H590Q570 556 553 591Q538 622 516 632T450 643Q404 643 366 633L322 383H335Q380 383 396 389T426
410Q444 432 472 489H505L458 223H425Q420 275 408 306Q401 323 386 329T330 335H313L279 139Q270 86 282 68T345 50Q400 50 426 63T485 117Q516 156 575 254H611L553 0H-33Z" />
<glyph unicode="F" glyph-name="F" horiz-adv-x="599" d="M-33 0L-27 33L0 40Q29 47 39 59T58 120L138 573Q145 623 140 634T108 653L83 660L89 693H642L622 475H588Q566 552 547 588Q530 621 511 632T445 644Q396 644 366 634L320 373H331Q379 373 395 378T426
403Q446 430 473 486H506L457 207H424Q421 256 411 291Q404 313 390 319T326 325H311L276 120Q268 70 272 59T306 41L342 33L337 0H-33Z" />
<glyph unicode="G" glyph-name="G" horiz-adv-x="688" d="M357 -12Q204 -12 118 68T32 275Q32 409 95 509T257 657T470 705Q602 705 660 671L640 464H605Q577 553 548 602Q530 633 510 646T457 660Q405 660 364 611T298 486T262 327T249 168Q249 95 271 64T344
33Q374 33 394 48L421 201Q428 249 423 261T392 281L367 288L373 321H700L694 288L672 282Q648 275 641 263T625 201L594 24Q493 -12 357 -12Z" />
<glyph unicode="H" glyph-name="H" horiz-adv-x="769" d="M-33 0L-27 33L0 40Q30 48 40 60T58 120L138 573Q145 621 140 633T108 653L83 660L89 693H444L438 660L412 653Q383 645 374 633T356 573L322 381H496L530 573Q538 621 533 632T500 653L478 660L484 693H839L833
660L804 653Q776 647 767 635T748 573L668 120Q661 72 665 60T696 40L722 33L717 0H362L367 33L392 40Q422 48 432 60T450 120L487 329H313L276 120Q269 72 273 60T304 40L327 33L322 0H-33Z" />
<glyph unicode="I" glyph-name="I" horiz-adv-x="383" d="M-33 0L-27 33L3 40Q32 47 42 59T61 120L141 573Q148 621 143 633T111 653L83 660L89 693H453L447 660L415 653Q387 647 378 635T359 573L279 120Q271 72 276 59T307 40L336 33L331 0H-33Z" />
<glyph unicode="J" glyph-name="J" horiz-adv-x="382" d="M-36 -196Q-110 -196 -152 -166T-195 -87Q-195 -53 -174 -33T-116 -13Q-70 -13 -53 -35T-32 -127Q-31 -141 -28 -146T-16 -151Q10 -151 21 -85L138 573Q145 621 140 633T108 653L83 660L89 693H447L441
660L412 653Q383 646 374 634T356 573L269 82Q248 -39 167 -117T-36 -196Z" />
<glyph unicode="K" glyph-name="K" horiz-adv-x="756" d="M446 0Q366 173 330 324L334 346L524 528Q594 598 594 621Q594 642 565 652L539 660L545 693H789L783 660L767 656Q745 650 721 634T683 607T624 555L502 445Q569 222 645 68Q651 55 658 50T683 40L704
33L699 0H446ZM-33 0L-27 33L0 40Q30 48 40 60T58 120L138 573Q145 621 140 633T108 653L83 660L89 693H444L438 660L412 653Q383 645 374 633T356 573L276 120Q269 72 273 60T304 40L327 33L322 0H-33Z" />
<glyph unicode="L" glyph-name="L" horiz-adv-x="611" d="M-33 0L-27 33L0 40Q30 48 40 60T58 120L138 573Q145 621 140 633T108 653L83 660L89 693H455L449 660L414 652Q385 645 375 633T356 573L278 134Q269 84 279 67T337 49Q390 49 415 62T469 112Q496 145
564 261H600L546 0H-33Z" />
<glyph unicode="M" glyph-name="M" horiz-adv-x="879" d="M-33 0L-27 33L0 40Q31 48 42 66T63 146L138 573Q145 621 140 633T108 653L83 660L89 693H397L448 332H452L630 693H949L943 660L914 653Q886 647 877 635T858 573L778 120Q771 72 776 60T806 40L832 33L827
0H468L473 33L502 40Q531 47 541 59T560 120L642 588H638L359 15H286L201 588H197L118 137Q108 78 113 63T147 40L174 33L169 0H-33Z" />
<glyph unicode="N" glyph-name="N" horiz-adv-x="683" d="M483 0L199 577H195L118 137Q108 78 113 63T150 40L180 33L175 0H-33L-27 33L0 40Q30 48 41 66T62 142L138 573Q145 621 140 633T108 653L83 660L89 693H375L558 329H562L601 556Q610 613 605 628T568
652L536 660L542 693H753L747 660L718 653Q688 646 678 630T657 549L561 0H483Z" />
<glyph unicode="O" glyph-name="O" horiz-adv-x="733" d="M327 -13Q200 -13 116 68T31 280Q31 376 67 458T161 593T290 675T435 705Q563 705 648 630T734 419Q734 319 698 235T602 98T472 16T327 -13ZM331 32Q385 32 429 106T495 284T517 488Q517 579 498 619T432
660Q377 660 333 583T268 401T247 200Q247 113 265 73T331 32Z" />
<glyph unicode="P" glyph-name="P" horiz-adv-x="670" d="M-33 0L-27 33L0 40Q30 48 40 60T58 120L138 573Q145 621 140 633T108 653L83 660L89 693H423Q691 693 691 508Q691 409 623 340T435 270Q372 270 332 290L339 324Q409 319 444 373T479 553Q479 605 464
624T413 644Q386 644 367 636L276 120Q269 72 273 61T307 42L339 33L334 0H-33Z" />
<glyph unicode="Q" glyph-name="Q" horiz-adv-x="733" d="M506 -177Q408 -177 318 -103Q283 -74 205 10Q129 41 80 114T31 284T67 461T163 595T295 676T440 705Q562 705 648 629T734 415Q734 337 710 270T643 155T551 74T442 24V21Q475 -18 521 -53Q564 -88 620
-88Q658 -88 702 -69L698 -100Q668 -128 616 -152T506 -177ZM331 31Q384 31 428 105T494 285T517 494Q517 580 497 620T432 660Q378 660 334 583T269 401T247 198Q247 113 266 72T331 31Z" />
<glyph unicode="R" glyph-name="R" horiz-adv-x="729" d="M-33 0L-27 33L0 40Q30 48 40 59T58 120L138 573Q145 621 140 633T108 653L83 660L89 693H423Q697 693 699 521Q699 450 659 403T548 336V332Q590 174 649 65Q659 48 683 38L696 33L691 0H449Q421 59 392
145T351 292H305L275 120Q268 72 272 59T300 40L327 33L322 0H-33ZM357 336Q424 336 455 398T487 553Q487 603 470 623T416 644Q382 644 366 637L312 339Q336 336 357 336Z" />
<glyph unicode="S" glyph-name="S" horiz-adv-x="529" d="M200 -13Q142 -13 85 -1T-2 27L16 218H51Q83 135 110 91Q145 33 211 33Q263 33 292 63T321 140Q321 178 297 205T211 263Q130 304 96 352T61 465Q61 568 143 636T352 705Q459 705 523 675L506 505H472Q445
577 416 619Q385 661 328 661Q281 661 255 635T229 565Q229 527 253 500T332 446Q427 399 467 352T508 236Q508 134 421 61T200 -13Z" />
<glyph unicode="T" glyph-name="T" horiz-adv-x="645" d="M92 0L97 33L129 40Q162 47 171 59T190 120L282 643H277Q248 643 233 637T199 612Q160 573 76 431H41L96 693H700L664 431H629Q626 441 620 466T610 502T602 531T592 562T583 586T572 610Q561 630 548
636T504 643H499L407 120Q399 72 404 59T438 40L468 33L463 0H92Z" />
<glyph unicode="U" glyph-name="U" horiz-adv-x="700" d="M356 -13Q288 -13 234 2T139 48T83 133T80 262L136 573Q143 621 138 633T106 653L81 660L87 693H445L439 660L410 653Q381 646 372 634T354 573L291 217Q263 60 406 60Q473 60 508 93T556 198L619 556Q625
588 626 603T624 630T612 644T586 652L555 660L561 693H770L764 660L734 653Q715 648 707 642T690 616T675 551L611 187Q595 95 531 41T356 -13Z" />
<glyph unicode="V" glyph-name="V" horiz-adv-x="686" d="M232 0L137 552Q127 611 120 630T91 655L72 660L78 693H440L434 660L402 653Q357 643 357 593Q357 579 363 533L404 214H409L569 534Q598 592 598 620Q598 645 564 654L540 660L546 693H766L760 660L739
654Q714 647 697 627T651 553L355 0H232Z" />
<glyph unicode="W" glyph-name="W" horiz-adv-x="1034" d="M214 0L142 566Q136 616 128 634T96 656L75 660L81 693H431L425 660L407 655Q362 643 362 594Q362 580 367 533L400 226H404L528 479L516 588Q510 645 477 654L459 660L465 693H815L809 660L779 653Q731
642 731 588Q731 579 735 533L764 226H769L919 534Q948 592 948 624Q948 650 911 656L889 660L895 693H1111L1105 660L1089 655Q1066 647 1045 622T994 540L710 0H580L541 383H538L347 0H214Z" />
<glyph unicode="X" glyph-name="X" horiz-adv-x="706" d="M-39 0L-33 33L-19 37Q8 45 33 63T97 128L267 329L164 581Q150 615 140 628T104 653L89 660L95 693H472L466 660L428 652Q411 649 400 638T389 611Q389 592 407 546L450 430H453L542 546Q577 591 577 624Q577
646 543 654L518 660L524 693H762L756 660L738 655Q712 648 694 631T629 559L478 378L590 112Q603 82 614 66T630 47T648 38L660 33L655 0H284L289 33L326 40Q342 43 353 54T365 81Q365 104 348 146L295 281H292L198 158Q150 95 150 68Q150 47 178 40L209 33L204
0H-39Z" />
<glyph unicode="Y" glyph-name="Y" horiz-adv-x="662" d="M102 0L107 33L138 40Q171 47 180 59T199 120L229 293L148 570Q133 617 124 632T95 654L78 660L84 693H441L435 660L403 653Q359 643 359 598Q359 575 372 530L420 358H424L538 540Q570 592 570 616Q570
642 533 653L511 660L517 693H737L731 660L712 654Q691 648 672 627T624 561L446 291L417 120Q409 72 414 60T448 40L477 33L472 0H102Z" />
<glyph unicode="Z" glyph-name="Z" horiz-adv-x="583" d="M-31 0L-22 51L401 645V648H383Q304 648 274 639T215 598Q207 589 199 580T185 564T169 542T154 520T133 489T110 455H75L124 693H650L641 642L217 52V48H243Q306 48 338 53T386 69T428 107Q471 152 540
263H575L518 0H-31Z" />
<glyph unicode="[" glyph-name="bracketleft" horiz-adv-x="366" d="M45 -130L198 734H432L426 701L372 695Q324 690 310 677T286 615L175 -10Q166 -59 176 -72T233 -91L285 -97L279 -130H45Z" />
<glyph unicode="\" glyph-name="backslash" horiz-adv-x="393" d="M254 -130L79 734H139L314 -130H254Z" />
<glyph unicode="]" glyph-name="bracketright" horiz-adv-x="366" d="M-45 -130L-39 -97L14 -91Q62 -86 76 -73T100 -10L211 615Q220 664 210 677T153 695L101 701L107 734H341L188 -130H-45Z" />
<glyph unicode="^" glyph-name="asciicircum" horiz-adv-x="357" d="M51 424L38 443L222 693H278L387 443L368 424L234 566L51 424Z" />
<glyph unicode="_" glyph-name="underscore" horiz-adv-x="361" d="M-50 -167L-40 -104H319L308 -167H-50Z" />
<glyph unicode="`" glyph-name="grave" horiz-adv-x="500" d="M400 571L221 606Q196 611 183 628T170 667Q170 693 187 713T231 734Q263 734 292 705L409 591L400 571Z" />
<glyph unicode="a" glyph-name="a" horiz-adv-x="595" d="M128 -13Q67 -13 35 26T3 137Q3 240 51 333T177 482T342 538Q425 538 488 492H492L565 540L584 531Q564 478 542 375L493 142Q490 128 490 119Q490 82 533 109L555 123L577 97Q536 56 480 22T369 -13Q302
-13 302 56Q302 65 305 89H301Q219 -13 128 -13ZM227 95Q267 95 309 148L375 460Q364 493 335 493Q302 493 268 442T213 310T191 152Q191 95 227 95Z" />
<glyph unicode="b" glyph-name="b" horiz-adv-x="590" d="M238 -13Q100 -13 20 67V77L124 615Q133 657 131 670T108 693L77 708L81 735L332 757L343 748Q327 698 314 631L290 506Q283 468 268 417H272Q374 538 464 538Q519 538 551 492T583 370Q583 210 488 99T238
-13ZM256 32Q297 32 330 82T380 208T397 365Q397 421 358 421Q334 421 306 402T261 360L202 66Q218 32 256 32Z" />
<glyph unicode="c" glyph-name="c" horiz-adv-x="487" d="M192 -13Q103 -13 57 35T11 161Q11 318 114 428T348 538Q423 538 462 507T502 434Q502 365 425 365Q387 365 371 384T350 455Q348 478 342 485T322 492Q279 492 239 397T199 192Q199 138 216 110T278 81Q340
81 421 158L449 135Q339 -13 192 -13Z" />
<glyph unicode="d" glyph-name="d" horiz-adv-x="605" d="M130 -13Q69 -13 36 27T3 140Q3 243 50 335T176 483T341 538Q376 538 398 526H402Q407 559 414 595L418 615Q427 658 425 670T402 693L371 708L375 735L628 757L639 748Q622 697 608 631L507 142Q504 128
504 119Q504 82 547 109L569 123L591 97Q551 57 493 22T381 -13Q311 -13 311 57Q311 67 314 91H310Q226 -13 130 -13ZM229 91Q248 91 274 108T318 148L386 460Q375 493 339 493Q304 493 269 441T212 309T190 151Q190 91 229 91Z" />
<glyph unicode="e" glyph-name="e" horiz-adv-x="498" d="M194 -13Q104 -13 58 35T11 164Q11 242 41 313T120 432T229 509T349 538Q425 538 467 509T510 428Q510 397 489 370T438 324T362 287T282 259T200 237Q199 223 199 196Q199 139 217 110T281 81Q343 81
424 158L452 135Q342 -13 194 -13ZM323 494Q291 494 255 432T205 281Q270 304 307 334Q349 369 349 443Q349 494 323 494Z" />
<glyph unicode="f" glyph-name="f" horiz-adv-x="364" d="M-47 -204Q-101 -204 -129 -183T-158 -128Q-158 -103 -143 -89T-101 -74Q-68 -74 -53 -87T-30 -143Q-27 -161 -15 -161Q-6 -161 0 -152T15 -108T34 -6L103 456H35L39 484L113 524L114 530Q133 643 209
703T386 763Q461 763 499 740T537 678Q537 650 520 633T467 616Q433 616 418 631T396 696Q393 718 377 718Q350 718 334 685T304 553L300 525H406L388 456H290L238 148Q210 -18 132 -111T-47 -204Z" />
<glyph unicode="g" glyph-name="g" horiz-adv-x="512" d="M310 -214T188 -214T0 -182T-67 -100Q-67 -26 85 7V11Q53 21 32 44T11 100Q11 173 111 230V233Q31 275 31 352Q31 432 105 485T277 538Q349 538 399 509Q462 572 523 572Q553 572 568 558T583 519Q583
494 568 477T526 459Q503 459 493 465T468 492Q455 509 426 490V487Q476 450 476 389Q476 309 402 256T231 203Q181 203 142 216Q122 199 122 178Q122 151 160 150L307 142Q485 132 485 -6Q485 -99 398 -156ZM207 -172Q275 -172 314 -147T354 -77Q354 -52 338 -40T285
-22L122 -3Q109 -12 102 -19T87 -44T79 -86Q79 -172 207 -172ZM236 244Q271 244 290 300T310 445Q310 497 271 497Q235 497 216 441T197 296Q197 244 236 244Z" />
<glyph unicode="h" glyph-name="h" horiz-adv-x="609" d="M390 -13Q351 -13 335 8T319 60Q319 95 332 151L374 342Q383 386 381 400T362 414Q313 414 257 344L189 0H4L125 615Q133 657 131 670T108 693L77 708L81 735L332 757L343 748Q327 698 314 631L290 506Q277
441 267 407H272Q303 444 328 468T396 515T485 538Q525 538 550 510T576 440Q576 405 567 367L515 142Q512 128 512 119Q512 82 555 109L577 123L599 97Q559 57 501 22T390 -13Z" />
<glyph unicode="i" glyph-name="i" horiz-adv-x="314" d="M94 -13Q55 -13 37 9T18 60Q18 92 36 159L93 372Q97 389 97 403Q97 432 57 407Q51 403 43 397L33 390L11 417Q52 464 109 501T221 538Q295 538 295 456Q295 416 276 349L221 151Q215 129 215 119Q215 81
259 109L281 123L303 97Q263 57 205 22T94 -13ZM276 571T234 571T164 596T136 661T164 726T234 751T304 726T332 661T304 596Z" />
<glyph unicode="j" glyph-name="j" horiz-adv-x="310" d="M-61 -204Q-118 -204 -151 -179T-184 -115Q-184 -88 -168 -73T-122 -58Q-87 -58 -71 -75T-46 -142Q-43 -158 -32 -158Q-17 -158 -8 -134T18 -23L93 372Q97 398 97 403Q97 432 57 407Q51 403 43 397L33
390L11 417Q52 463 110 500T221 538Q295 538 295 456Q295 452 276 349L210 64Q181 -63 112 -133T-61 -204ZM276 571T234 571T164 596T136 661T164 726T234 751T304 726T332 661T304 596Z" />
<glyph unicode="k" glyph-name="k" horiz-adv-x="576" d="M389 -13Q355 -13 335 9T298 81Q274 149 251 245L254 264Q296 325 323 361T391 445T467 515T534 538Q561 538 578 520T595 470T576 419T532 399Q510 399 497 408T476 427T460 436Q448 436 427 418T388
375Q450 190 469 143Q486 103 496 99T531 112L547 123L569 97Q459 -13 389 -13ZM2 0L124 615Q133 657 131 670T108 693L77 708L81 735L332 757L343 748Q327 698 314 631L189 0H2Z" />
<glyph unicode="l" glyph-name="l" horiz-adv-x="315" d="M96 -13Q57 -13 39 9T21 60Q21 80 35 152L126 615Q135 657 133 670T110 693L77 708L81 735L334 757L345 748Q329 698 316 631L218 142Q214 122 214 114Q214 81 261 111L283 125L305 99Q190 -13 96 -13Z" />
<glyph unicode="m" glyph-name="m" horiz-adv-x="901" d="M682 -13Q643 -13 627 8T611 60Q611 95 624 151L666 342Q675 386 673 400T654 414Q617 414 567 349L492 0H305L378 342Q386 386 384 400T365 414Q326 414 278 348L202 0H15L93 372Q97 389 97 403Q97 432
57 407Q51 403 43 397L33 390L11 417Q53 464 107 501T213 538Q250 538 266 518T283 467Q283 432 275 402H280Q312 442 336 466T402 514T488 538Q528 538 553 511T578 440Q578 422 576 412H580Q611 450 632 472T694 516T777 538Q817 538 842 510T868 440Q868 405
859 367L807 142Q804 128 804 119Q804 82 847 109L869 123L891 97Q851 57 793 22T682 -13Z" />
<glyph unicode="n" glyph-name="n" horiz-adv-x="622" d="M403 -13Q364 -13 348 8T332 60Q332 95 345 151L387 342Q396 386 394 400T375 414Q326 414 278 348L202 0H15L93 372Q97 389 97 403Q97 432 57 407Q51 403 43 397L33 390L11 417Q53 464 107 501T213 538Q250
538 266 518T283 467Q283 432 275 402H280Q311 440 337 466T408 515T498 538Q538 538 563 510T589 440Q589 405 580 367L528 142Q525 128 525 119Q525 82 568 109L590 123L612 97Q572 57 514 22T403 -13Z" />
<glyph unicode="o" glyph-name="o" horiz-adv-x="561" d="M236 -13Q125 -13 67 45T8 195Q8 345 104 441T324 538Q435 538 493 481T552 331Q552 255 525 189T452 80T351 12T236 -13ZM237 32Q278 32 310 94T356 237T371 395Q371 493 321 493Q280 493 249 431T203
288T188 130Q188 32 237 32Z" />
<glyph unicode="p" glyph-name="p" horiz-adv-x="607" d="M-85 -209L-80 -177L-60 -172Q-30 -165 -22 -155T-6 -112L93 372Q97 389 97 403Q97 432 57 407Q51 403 43 397L33 390L11 417Q53 465 109 501T223 538Q286 538 286 469Q286 440 279 407H283Q383 538 477
538Q534 538 566 491T599 362Q599 212 506 100T271 -13Q231 -13 203 -2Q201 -23 196 -48L183 -112Q176 -146 179 -155T210 -171L235 -177L230 -209H-85ZM278 32Q317 32 349 86T396 216T412 365Q412 421 373 421Q349 421 324 403T280 360L217 68Q234 32 278 32Z"
/>
<glyph unicode="q" glyph-name="q" horiz-adv-x="592" d="M179 -209L186 -177L213 -171Q241 -165 248 -157T263 -112L286 -2Q300 62 309 86H305Q218 -13 130 -13Q69 -13 36 27T3 140Q3 297 108 417T349 538Q437 538 500 492H504L577 540L596 531Q576 484 554 375L456
-112Q450 -147 455 -156T486 -172L505 -177L498 -209H179ZM229 91Q248 91 273 107T316 146L385 460Q374 493 339 493T269 441T212 309T190 151Q190 91 229 91Z" />
<glyph unicode="r" glyph-name="r" horiz-adv-x="495" d="M15 0L93 372Q97 389 97 403Q97 432 57 407Q51 403 43 397L33 390L11 417Q53 464 108 501T216 538Q283 538 283 467Q283 433 272 391H277Q316 461 355 499T445 538Q476 538 496 517T517 460Q517 422 494
400T438 378Q411 378 392 396T365 414Q326 414 272 321L202 0H15Z" />
<glyph unicode="s" glyph-name="s" horiz-adv-x="450" d="M182 -13Q83 -13 34 20T-15 102Q-15 132 3 149T57 167Q97 167 114 149T145 71Q150 51 162 41T199 31Q269 31 269 90Q269 117 251 138T178 189Q110 225 76 265T42 360Q42 440 107 489T263 538Q356 538 400
506T444 429Q444 374 379 374Q342 374 326 389T297 453Q286 494 249 494Q186 494 186 440Q186 412 208 392T299 334Q420 269 420 177Q420 96 356 42T182 -13Z" />
<glyph unicode="t" glyph-name="t" horiz-adv-x="375" d="M102 -13Q63 -13 46 9T28 60T41 152L105 456H39L45 484L120 524L140 610L306 679H340L308 525H416L398 456H293L228 142Q224 118 224 109Q224 79 292 123L328 146L351 120Q221 -13 102 -13Z" />
<glyph unicode="u" glyph-name="u" horiz-adv-x="619" d="M125 -13Q85 -13 60 15T34 85Q34 120 43 158L92 372Q96 389 96 403Q96 432 56 407Q50 403 42 397L32 390L10 417Q52 465 107 501T214 538Q252 538 271 516T290 465Q290 425 278 374L236 183Q227 140 230
126T250 111Q270 111 295 129T342 173L418 525H605L524 142Q521 128 521 119Q521 82 564 109L586 123L608 97Q568 57 510 22T399 -13Q333 -13 333 58Q333 86 344 119H340Q313 89 297 73T252 34T192 -1T125 -13Z" />
<glyph unicode="v" glyph-name="v" horiz-adv-x="505" d="M94 0Q94 276 84 373Q80 412 69 415T27 397L17 390L-5 417Q38 465 95 501T195 538Q227 538 242 517T261 444Q271 325 264 135H268Q329 201 373 276T417 392Q417 407 399 432T380 480Q380 507 400 522T447
538Q477 538 496 519T516 463Q516 386 419 250T197 0H94Z" />
<glyph unicode="w" glyph-name="w" horiz-adv-x="766" d="M93 0Q93 239 81 373Q77 411 67 415T27 397L17 390L-5 417Q36 463 94 500T194 538Q226 538 242 518T262 450Q273 293 268 152H272Q324 216 373 294Q372 313 371 343T369 381Q367 412 359 414T324 396L315
389L293 416Q335 464 386 501T476 538Q507 538 523 519T542 454Q548 298 539 148H543Q678 325 678 397Q678 409 659 433T639 481Q639 508 659 523T707 539Q737 539 757 520T777 464Q777 392 682 257T470 0H371Q374 117 374 219H371Q255 63 197 0H93Z" />
<glyph unicode="x" glyph-name="x" horiz-adv-x="557" d="M28 -13Q-1 -13 -19 4T-38 49Q-38 81 -21 98T23 116Q36 116 49 110T69 99T87 92T109 101Q142 128 187 235Q170 307 149 373Q136 414 125 418T81 397L72 390L50 417Q90 464 148 501T249 538Q278 538 289
521T316 452Q326 416 343 337H346Q387 442 426 486Q472 538 522 538Q550 538 567 522T585 478Q585 449 568 431T526 413Q504 413 488 422T467 433T445 423Q408 385 371 283Q384 224 410 145Q424 102 436 96T473 109L494 123L516 97Q478 56 423 22T320 -13Q287 -13
270 7T239 75Q224 124 212 182H209Q172 91 128 38Q86 -13 28 -13Z" />
<glyph unicode="y" glyph-name="y" horiz-adv-x="515" d="M-5 -209Q-49 -209 -74 -188T-100 -128Q-100 -100 -83 -83T-38 -66Q-13 -66 4 -81T36 -110T66 -125Q99 -125 156 -64Q132 249 98 384Q89 417 76 418T33 397L23 390L1 417Q44 465 100 501T200 538Q230 538
246 520T272 457Q302 309 310 133H314Q431 303 431 390Q431 405 409 431T387 480Q387 507 407 522T454 538Q484 538 505 518T526 458Q526 337 307 44Q213 -82 141 -145T-5 -209Z" />
<glyph unicode="z" glyph-name="z" horiz-adv-x="460" d="M264 -17Q225 -17 158 25T53 67Q24 67 -5 -7H-13L-54 29V36Q-14 65 40 114L321 370Q279 370 203 384T94 399Q77 399 77 387Q77 382 92 378T122 363T137 332Q137 283 87 283Q58 283 43 301T28 350Q28 404
91 471T214 539Q262 539 327 500T413 460Q430 460 442 475T473 530H481L520 500V491Q489 466 415 399L162 168Q195 167 256 155T344 142Q366 142 379 153T418 200L449 188Q395 78 355 31T264 -17Z" />
<glyph unicode="{" glyph-name="braceleft" horiz-adv-x="366" d="M284 -131Q161 -113 117 -87T72 -16Q72 19 112 120T153 247Q153 265 132 276T59 297L66 341Q139 345 162 360T185 412Q185 431 175 505T165 603Q165 629 170 646T191 681T235 708T311 725T426
734L421 696Q339 687 314 671T285 613Q283 591 285 520T286 422Q284 380 251 356T122 317V313Q188 297 217 275T246 214Q246 188 218 90T190 -27Q190 -53 213 -68T291 -94L284 -131Z" />
<glyph unicode="|" glyph-name="bar" horiz-adv-x="250" d="M112 -130V734H168V-130H112Z" />
<glyph unicode="}" glyph-name="braceright" horiz-adv-x="366" d="M101 734Q224 716 268 690T313 619Q313 584 273 483T232 356Q232 338 253 327T326 306L319 262Q246 258 223 243T200 191Q200 172 210 98T220 0Q220 -26 215 -43T194 -78T150 -105T74 -122T-41
-131L-36 -93Q46 -84 71 -68T100 -10Q102 12 100 83T99 181Q101 223 134 247T263 286V290Q197 306 168 328T139 389Q139 415 167 513T195 630Q195 656 172 671T94 697L101 734Z" />
<glyph unicode="~" glyph-name="asciitilde" horiz-adv-x="349" d="M32 232L5 247Q34 313 58 342T115 371Q138 371 197 353T276 335Q303 335 331 375L359 360Q330 293 308 265T249 236Q226 236 167 254T87 272Q72 272 61 264T32 232Z" />
</font>
</defs>
</svg>
