<?xml version="1.0" standalone="no"?> <!DOCTYPE svg PUBLIC "-//W3C//DTD SVG 1.0//EN" "http://www.w3.org/TR/2001/REC-SVG-20010904/DTD/svg10.dtd" > <svg xmlns="http://www.w3.org/2000/svg" width="100%" height="100%">
<defs >
<font horiz-adv-x="534" ><font-face
    font-family="Publico Headline"
    units-per-em="1000"
    panose-1="2 4 5 2 6 5 4 6 2 3"
    ascent="801"
    descent="-199"
    alphabetic="0" />
<missing-glyph horiz-adv-x="500" />
<glyph unicode=" " glyph-name="space" horiz-adv-x="214" />
<glyph unicode="!" glyph-name="exclam" horiz-adv-x="260" d="M157 -5T132 -5T89 13T70 56Q70 82 88 99T132 117Q157 117 176 100T195 56Q195 31 176 13ZM120 194L69 623Q65 661 84 681T132 702Q162 702 181 682T196 623L145 194H120Z" />
<glyph unicode="&quot;" glyph-name="quotedbl" horiz-adv-x="329" d="M82 474L39 631Q29 667 45 685T88 704T130 686T137 631L98 474H82ZM230 474L191 631Q182 667 198 685T240 704T282 686T289 631L246 474H230Z" />
<glyph unicode="#" glyph-name="numbersign" horiz-adv-x="523" d="M85 0L125 196H33L45 270H141L173 426H81L93 500H189L229 693H269L229 500H357L397 693H437L397 500H490L478 426H381L349 270H442L430 196H333L293 0H253L293 196H165L125 0H85ZM181 270H309L341
426H213L181 270Z" />
<glyph unicode="$" glyph-name="dollar" horiz-adv-x="492" d="M13 105Q13 127 27 140T63 154Q91 154 104 137T121 80Q124 47 143 33T224 18V306Q121 351 78 398T34 519Q34 590 88 641T224 700V764H259V701Q348 698 395 668T442 600Q442 577 428 564T389 550Q363
550 350 566T333 621Q330 648 316 658T259 670V404Q369 354 414 307T459 186Q459 101 403 47T259 -12V-110H224V-13Q118 -10 66 22T13 105ZM371 151Q371 195 347 227T259 290V19Q371 29 371 151ZM117 553Q117 509 140 480T224 421V668Q172 662 145 631T117 553Z"
/>
<glyph unicode="%" glyph-name="percent" horiz-adv-x="722" d="M188 348Q129 348 80 392T30 519Q30 606 81 654T191 703Q250 703 299 658T349 529Q349 444 298 396T188 348ZM189 373Q263 373 263 519Q263 678 189 678Q116 678 116 530Q116 373 189 373ZM530 -14Q471
-14 422 31T372 158Q372 244 423 292T534 341Q592 341 642 296T692 168Q692 83 640 35T530 -14ZM458 11T532 11T606 157Q606 316 532 316T458 169Q458 11 532 11ZM76 -50L583 714H629L122 -50H76Z" />
<glyph unicode="&amp;" glyph-name="ampersand" horiz-adv-x="675" d="M266 -13Q199 -13 151 4T77 51T41 112T30 179Q30 248 74 294T198 384Q137 469 137 537Q137 611 190 658T308 705Q374 705 423 670T472 569Q472 515 431 478T304 400Q384 279 479 160Q522 235
522 301Q522 321 514 329T486 342L455 348V366H655V348L625 340Q608 336 600 326T579 287Q522 162 503 131Q534 92 573 51Q592 30 607 27L643 18V0H487Q470 18 441 54Q359 -13 266 -13ZM288 28Q370 28 419 79Q306 216 213 361Q143 302 143 199Q143 124 180 76T288
28ZM289 421Q341 452 363 483T385 563Q385 619 364 645T308 672Q269 672 248 647T226 580Q226 510 289 421Z" />
<glyph unicode="&apos;" glyph-name="quotesingle" horiz-adv-x="177" d="M80 474L39 631Q29 667 45 685T88 704T130 686T137 631L96 474H80Z" />
<glyph unicode="(" glyph-name="parenleft" horiz-adv-x="313" d="M282 -141Q44 51 44 302Q44 436 114 551T282 745L302 727Q230 650 186 543T141 322Q141 48 302 -123L282 -141Z" />
<glyph unicode=")" glyph-name="parenright" horiz-adv-x="313" d="M31 -141L11 -123Q83 -46 127 61T172 282Q172 556 11 727L31 745Q269 553 269 302Q269 168 199 53T31 -141Z" />
<glyph unicode="*" glyph-name="asterisk" horiz-adv-x="350" d="M87 432Q72 443 71 460T88 492L169 551L70 556Q47 557 39 571T36 602T56 624T91 618L171 560L142 655Q135 678 146 690T175 703T204 691T208 655L179 560L259 618Q278 630 293 624T314 600T311
570T280 556L181 551L261 492Q280 476 279 459T262 432Q251 422 234 427T208 453L175 547L141 453Q133 432 116 427T87 432Z" />
<glyph unicode="+" glyph-name="plus" horiz-adv-x="450" d="M199 131V316H35V360H199V545H251V360H415V316H251V131H199Z" />
<glyph unicode="," glyph-name="comma" horiz-adv-x="220" d="M36 -117L30 -101Q123 -57 123 12Q115 4 99 4Q74 4 58 20T42 60Q42 85 60 101T105 117Q135 117 156 95T178 35Q178 -21 143 -60T36 -117Z" />
<glyph unicode="-" glyph-name="hyphen" horiz-adv-x="269" d="M27 254L36 328H242L233 254H27Z" />
<glyph unicode="." glyph-name="period" horiz-adv-x="208" d="M130 -5T104 -5T60 13T42 56T60 99T104 117T148 99T166 56T148 13Z" />
<glyph unicode="/" glyph-name="slash" horiz-adv-x="369" d="M0 -130L303 734H349L46 -130H0Z" />
<glyph unicode="0" glyph-name="zero" horiz-adv-x="619" d="M307 -12Q258 -12 212 7T125 66T59 175T34 335Q34 429 60 503T128 619T217 683T313 705T407 685T494 625T560 515T585 354Q585 261 559 188T491 72T402 9T307 -12ZM310 22Q392 22 433 98T474 335Q474
671 310 671T146 354Q146 22 310 22Z" />
<glyph unicode="1" glyph-name="one" horiz-adv-x="343" d="M32 0V18L89 27Q109 30 116 41T123 87V588H30V606Q100 620 140 640T215 700L230 697V87Q230 51 235 41T261 27L313 18V0H32Z" />
<glyph unicode="2" glyph-name="two" horiz-adv-x="503" d="M16 0V53Q148 162 226 250Q296 329 324 381T353 514Q353 598 319 634T231 671Q188 671 173 660T154 623Q146 553 93 553Q66 553 53 568T39 605Q39 646 95 675T241 705Q340 705 401 654T463 507Q463 471
450 435T410 363T354 295T278 225T197 160T108 92V88H357Q397 88 412 100T454 166H472L456 0H16Z" />
<glyph unicode="3" glyph-name="three" horiz-adv-x="496" d="M199 -12Q111 -12 61 15T11 90Q11 111 25 126T66 141Q110 141 125 92Q126 87 129 77T134 63T137 52T141 43T146 36T153 30T162 27T174 24T189 23T207 22Q278 22 312 69T346 194Q346 269 314 306T204
343H150V377H194Q264 377 295 413T327 527Q327 671 208 671Q176 671 164 662T148 620Q140 553 90 553Q63 553 49 568T35 604Q35 651 92 678T224 705Q324 705 378 658T433 539Q433 478 393 432T268 366V363Q359 353 408 309T457 190Q457 106 390 47T199 -12Z" />
<glyph unicode="4" glyph-name="four" horiz-adv-x="545" d="M235 0V18L280 27Q298 30 304 40T311 87V204H18V244L360 693H415V259H523L512 204H415V87Q415 50 420 41T446 27L493 18V0H235ZM74 259H311V570H308L74 261V259Z" />
<glyph unicode="5" glyph-name="five" horiz-adv-x="506" d="M212 -12Q132 -12 82 13T32 86Q32 107 46 123T87 140Q114 140 129 126T151 78Q158 42 169 32T216 22Q376 22 376 195Q376 277 328 315T199 353Q132 353 82 335L75 341L114 693H382Q401 693 410 701T436
745H455L437 605H142L120 428Q164 444 227 444Q330 444 398 389T467 225Q467 119 392 54T212 -12Z" />
<glyph unicode="6" glyph-name="six" horiz-adv-x="551" d="M288 -12Q177 -12 106 70T34 294Q34 398 64 480T143 609T248 681T364 705Q430 705 471 684T513 622Q513 598 501 584T463 570Q435 570 421 584T399 628Q393 653 384 662T352 671Q317 671 285 656T222
607T172 511T147 365Q218 419 311 419Q402 419 459 363T517 210Q517 110 450 49T288 -12ZM289 22Q356 22 382 66T409 197Q409 374 280 374Q201 374 146 336Q145 319 145 301Q145 257 147 224T158 150T181 83T223 40T289 22Z" />
<glyph unicode="7" glyph-name="seven" horiz-adv-x="479" d="M110 0Q152 178 226 319T405 606H103Q77 606 68 595T39 538H20L37 693H468V648Q369 502 310 351T219 0H110Z" />
<glyph unicode="8" glyph-name="eight" horiz-adv-x="532" d="M268 -13Q174 -13 103 33T31 165Q31 265 184 350V353Q62 423 62 528Q62 604 122 654T272 705Q355 705 416 663T477 546Q477 498 442 458T344 377V374Q424 328 462 286T501 184Q501 103 435 45T268
-13ZM274 21Q339 21 375 56T412 152Q412 214 319 275Q298 288 208 338Q184 318 168 301T137 249T121 174Q121 101 162 61T274 21ZM321 390Q343 412 355 428T379 475T391 543Q391 606 359 638T268 671Q211 671 179 641T146 560Q146 534 161 509T205 462T258 425T321
390Z" />
<glyph unicode="9" glyph-name="nine" horiz-adv-x="551" d="M195 -12Q129 -12 88 9T46 71Q46 95 58 109T96 123Q124 123 138 109T160 65Q166 40 175 31T207 22Q295 22 346 91T404 328Q333 274 245 274Q153 274 94 329T34 477Q34 581 101 643T263 705Q374 705
445 623T517 399Q517 194 425 91T195 -12ZM271 319Q350 319 405 357Q406 374 406 392Q406 436 404 469T393 543T370 610T328 653T262 671Q195 671 169 626T142 490Q142 319 271 319Z" />
<glyph unicode=":" glyph-name="colon" horiz-adv-x="216" d="M134 -5T108 -5T64 13T46 56T64 99T108 117T152 99T170 56T152 13ZM134 290T108 290T64 308T46 351T64 394T108 412T152 394T170 351T152 308Z" />
<glyph unicode=";" glyph-name="semicolon" horiz-adv-x="217" d="M37 -117L31 -101Q124 -57 124 12Q116 4 100 4Q75 4 59 20T43 60Q43 85 61 101T106 117Q136 117 157 95T179 35Q179 -21 144 -60T37 -117ZM134 290T108 290T64 308T46 351T64 394T108 412T152
394T170 351T152 308Z" />
<glyph unicode="&lt;" glyph-name="less" horiz-adv-x="450" d="M412 130L32 307V348L412 525V475L88 328L412 181V130Z" />
<glyph unicode="=" glyph-name="equal" horiz-adv-x="480" d="M35 241V285H445V241H35ZM35 391V435H445V391H35Z" />
<glyph unicode="&gt;" glyph-name="greater" horiz-adv-x="450" d="M418 307L38 130V181L362 328L38 475V525L418 348V307Z" />
<glyph unicode="?" glyph-name="question" horiz-adv-x="430" d="M147 194V367Q304 429 304 547Q304 671 195 671Q167 671 157 664T142 630Q137 599 124 585T85 570T47 584T34 620Q34 660 76 682T177 705Q276 705 333 657T390 514Q390 365 188 294V194H147ZM191
-5T166 -5T123 13T104 56Q104 82 122 99T166 117Q191 117 210 100T229 56Q229 31 210 13Z" />
<glyph unicode="@" glyph-name="at" horiz-adv-x="835" d="M393 -135Q231 -135 132 -43T32 206Q32 328 92 432T253 596T471 656Q620 656 711 574T803 360Q803 275 779 210T717 110T639 57T558 39Q460 39 471 153H467Q397 41 319 41Q277 41 250 71T223 156Q223
294 305 391T472 488Q521 488 567 455H571L607 485L619 479Q607 442 593 374L560 187Q550 136 557 108T595 79Q652 79 696 140T740 325Q740 463 672 543T471 624Q311 624 210 512T109 234Q109 83 186 -4T419 -92Q534 -92 644 -41V-69Q606 -94 533 -114T393 -135ZM355
98Q403 98 473 201L517 425Q506 459 466 459Q410 459 362 370T313 170Q313 131 322 115T355 98Z" />
<glyph unicode="A" glyph-name="A" horiz-adv-x="640" d="M-4 0V18L25 25Q47 30 57 46T91 128L290 693H345L554 117Q573 65 585 48T617 25L644 18V0H389V18L417 25Q451 34 451 59Q451 80 435 126L393 245H173L134 126Q122 90 122 64Q122 32 157 25L190 18V0H-4ZM278
560L184 278H382L283 560H278Z" />
<glyph unicode="B" glyph-name="B" horiz-adv-x="602" d="M25 0V18L70 27Q88 30 94 40T101 87V606Q101 641 95 651T70 666L25 675V693H295Q536 693 536 530Q536 398 370 368V364Q573 347 573 195Q573 102 505 51T320 0H25ZM310 34Q381 34 420 71T459 181Q459 264
423 303T306 343H208V112Q208 60 225 47T310 34ZM208 376H292Q356 376 392 412T428 510Q428 591 395 625T286 659Q234 659 208 653V376Z" />
<glyph unicode="C" glyph-name="C" horiz-adv-x="610" d="M344 -12Q205 -12 120 75T35 341Q35 529 130 617T377 705Q484 705 563 681L572 483H549Q527 553 484 622Q455 669 366 669Q256 669 203 598T149 360Q149 181 199 103T352 24Q415 24 443 36T491 78Q527
133 555 212H575L565 32Q475 -12 344 -12Z" />
<glyph unicode="D" glyph-name="D" horiz-adv-x="686" d="M25 0V18L70 27Q88 30 94 40T101 87V606Q101 641 95 651T70 666L25 675V693H317Q390 693 448 676T553 620T625 514T651 353Q651 182 559 91T311 0H25ZM304 32Q433 32 486 112T539 334Q539 503 484 582T302
661Q239 661 208 652V126Q208 64 223 48T304 32Z" />
<glyph unicode="E" glyph-name="E" horiz-adv-x="582" d="M25 0V18L70 27Q88 30 94 40T101 87V606Q101 641 95 651T70 666L25 675V693H520L532 516H510Q483 579 463 610Q442 642 419 650T329 659Q242 659 208 650V377H263Q323 377 347 383T381 409Q395 437 406
487H428V233H406Q395 277 381 311Q372 333 352 338T263 343H208V152Q208 120 208 106T213 75T225 53T248 42T284 35T338 34Q405 34 428 42T473 81Q500 118 531 209H555L540 0H25Z" />
<glyph unicode="F" glyph-name="F" horiz-adv-x="553" d="M25 0V18L70 27Q88 30 94 40T101 87V606Q101 641 95 651T70 666L25 675V693H513L523 506H499Q470 580 450 612T407 651T317 659Q246 659 208 652V365H241Q306 365 330 371T365 395Q383 424 395 474H417V216H395Q384
262 365 304Q357 322 336 326T241 331H208V87Q208 50 213 41T239 28L297 18V0H25Z" />
<glyph unicode="G" glyph-name="G" horiz-adv-x="669" d="M371 -12Q212 -12 124 76T35 341Q35 438 62 510T138 624T246 685T377 705Q495 705 574 686L587 487H564Q536 568 508 611Q484 647 461 658T372 669Q260 669 204 596T147 365Q147 189 199 107T369 24Q438
24 488 49V198Q488 234 482 243T457 257L410 267V285H660V267L626 259Q607 254 601 244T595 198V19Q480 -12 371 -12Z" />
<glyph unicode="H" glyph-name="H" horiz-adv-x="716" d="M25 0V18L70 27Q88 30 94 40T101 87V606Q101 641 95 651T70 666L25 675V693H286V675L239 666Q219 661 214 652T208 606V370H508V606Q508 642 503 651T477 666L430 675V693H691V675L646 666Q627 662 621
652T615 606V87Q615 51 620 41T646 27L691 18V0H430V18L477 27Q498 31 503 40T508 87V336H208V87Q208 50 213 41T239 27L286 18V0H25Z" />
<glyph unicode="I" glyph-name="I" horiz-adv-x="317" d="M25 0V18L74 27Q93 30 99 40T105 87V606Q105 642 99 652T74 666L25 675V693H292V675L243 666Q223 662 218 652T212 606V87Q212 51 217 41T243 27L292 18V0H25Z" />
<glyph unicode="J" glyph-name="J" horiz-adv-x="309" d="M16 -163Q-38 -163 -67 -145T-96 -98Q-96 -76 -83 -62T-43 -48Q-15 -48 -2 -62T19 -107Q24 -122 27 -125T46 -128Q70 -128 85 -103T101 -26V606Q101 642 96 651T70 666L23 675V693H284V675L239 666Q220
662 214 652T208 606V59Q208 -41 159 -102T16 -163Z" />
<glyph unicode="K" glyph-name="K" horiz-adv-x="635" d="M479 0Q346 150 240 344V357L448 598Q465 618 465 636Q465 658 429 667L396 675V693H611V675L584 668Q560 662 544 649T490 594L319 404Q368 318 440 216T572 47Q587 30 604 26L638 18V0H479ZM25 0V18L70
27Q88 30 94 40T101 87V606Q101 641 95 651T70 666L25 675V693H286V675L239 666Q219 661 214 652T208 606V87Q208 50 213 41T239 27L286 18V0H25Z" />
<glyph unicode="L" glyph-name="L" horiz-adv-x="550" d="M25 0V18L70 27Q88 30 94 40T101 87V606Q101 641 95 651T70 666L25 675V693H290V675L239 665Q219 661 214 652T208 606V129Q208 83 213 66T240 42T317 34Q383 34 407 42T453 81Q484 125 512 216H536L524 0H25Z" />
<glyph unicode="M" glyph-name="M" horiz-adv-x="828" d="M25 0V18L60 25Q84 30 92 42T101 97V606Q101 641 95 651T70 666L25 675V693H226L415 173H418L599 693H803V675L758 666Q739 662 733 652T727 606V87Q727 51 732 41T758 27L803 18V0H548V18L589 27Q610
32 615 41T620 87V620H616L404 16H363L145 620H141V97Q141 54 148 42T182 25L219 18V0H25Z" />
<glyph unicode="N" glyph-name="N" horiz-adv-x="676" d="M540 -4L145 607H141V97Q141 54 148 42T182 25L224 18V0H25V18L60 25Q84 30 92 42T101 97V606Q101 641 95 651T70 666L25 675V693H212L540 183H544V596Q544 640 537 652T503 668L457 675V693H660V675L625
668Q601 663 593 651T584 596V-4H540Z" />
<glyph unicode="O" glyph-name="O" horiz-adv-x="690" d="M340 -12Q206 -12 120 79T33 337Q33 431 59 503T131 619T231 683T350 705Q484 705 570 611T657 351Q657 257 631 186T560 72T459 9T340 -12ZM348 24Q449 24 497 99T545 334Q545 399 535 454T504 560T440
640T341 669Q240 669 193 592T145 354Q145 289 155 234T186 130T249 53T348 24Z" />
<glyph unicode="P" glyph-name="P" horiz-adv-x="567" d="M25 0V18L70 27Q88 30 94 40T101 87V606Q101 641 97 651T79 663L25 675V693H304Q424 693 486 643T549 498Q549 401 484 342T303 282Q257 282 241 290V313Q344 308 391 348T438 488Q438 582 406 620T298
659Q234 659 208 652V87Q208 49 213 40T239 27L297 18V0H25Z" />
<glyph unicode="Q" glyph-name="Q" horiz-adv-x="690" d="M589 -167Q500 -167 417 -114Q378 -89 277 -6Q164 16 99 105T33 337Q33 431 59 503T131 619T231 684T350 706Q484 706 570 612T657 351Q657 201 594 114T424 -1V-4Q469 -42 514 -68Q588 -112 661 -112Q690
-112 732 -95V-115Q675 -167 589 -167ZM348 24Q449 24 497 99T545 334Q545 385 540 430T520 521T483 598T424 650T341 670Q240 670 193 593T145 354Q145 289 155 234T186 130T249 53T348 24Z" />
<glyph unicode="R" glyph-name="R" horiz-adv-x="629" d="M25 0V18L70 27Q88 30 94 40T101 87V606Q101 641 95 651T70 666L25 675V693H311Q540 693 540 517Q540 460 499 416T381 348V345Q493 149 572 52Q589 30 613 24L634 18V0H480Q367 149 281 322H208V87Q208
50 213 41T239 27L286 18V0H25ZM265 354Q352 354 390 389T429 507Q429 595 399 627T298 659Q238 659 208 652V358Q237 354 265 354Z" />
<glyph unicode="S" glyph-name="S" horiz-adv-x="506" d="M232 -13Q120 -13 40 22L29 204H53Q86 122 114 78Q134 47 162 35T244 23Q315 23 349 56T383 148Q383 200 348 234T218 311Q123 354 83 399T42 517Q42 599 102 652T260 706Q362 706 422 684L434 520H411Q386
583 359 621Q340 649 319 659T249 670Q189 670 156 642T122 560Q122 510 150 479T262 410Q375 358 422 313T470 204Q470 109 408 48T232 -13Z" />
<glyph unicode="T" glyph-name="T" horiz-adv-x="597" d="M166 0V18L214 27Q233 31 239 41T245 87V661H226Q150 661 130 653T87 606Q64 566 40 491H16L25 693H572L581 491H557Q533 566 510 606Q488 645 468 653T371 661H352V87Q352 50 357 41T383 27L431 18V0H166Z" />
<glyph unicode="U" glyph-name="U" horiz-adv-x="677" d="M344 -12Q222 -12 155 46T87 225V606Q87 642 81 652T56 666L11 675V693H268V675L225 666Q204 661 199 652T194 606V215Q194 124 237 80T375 36Q550 36 550 224V596Q550 640 543 652T509 668L460 675V693H666V675L631
668Q607 663 599 651T590 596V217Q590 117 530 53T344 -12Z" />
<glyph unicode="V" glyph-name="V" horiz-adv-x="634" d="M293 0L84 576Q64 630 54 646T21 668L-4 675V693H249V675L221 668Q187 660 187 634Q187 613 203 567L355 133H360L504 567Q518 609 518 630Q518 661 481 668L448 675V693H638V675L611 668Q591 663 583
649T554 578Q551 570 549 565L350 0H293Z" />
<glyph unicode="W" glyph-name="W" horiz-adv-x="927" d="M271 0L84 576Q66 631 56 647T24 668L-3 675V693H244V675L213 668Q181 661 181 631Q181 615 195 567L328 143H333L455 509L433 576Q416 629 405 646T372 668L345 675V693H591V675L560 668Q529 661 529
631Q529 608 542 567L676 143H681L797 567Q809 611 809 633Q809 661 778 668L745 675V693H930V675L900 668Q878 663 867 642T838 558L674 0H620L476 447H473L323 0H271Z" />
<glyph unicode="X" glyph-name="X" horiz-adv-x="641" d="M17 0V18L45 24Q65 28 77 42T122 106L267 333L108 596Q104 602 97 614T87 631T80 642T72 652T64 659T55 664T44 668L17 675V693H278V675L242 668Q218 663 218 640Q218 620 238 585L345 400H348L456 595Q471
622 471 643Q471 663 449 668L415 675V693H598V675L570 668Q551 663 538 648T497 587L367 372L529 103Q533 97 539 86T548 70T556 57T564 46T571 38T579 31T587 27T597 24L624 18V0H367V18L399 23Q428 27 428 48Q428 66 404 106L288 304H285L163 98Q144 66 144
51Q144 28 168 23L195 18V0H17Z" />
<glyph unicode="Y" glyph-name="Y" horiz-adv-x="602" d="M181 0V18L229 27Q248 31 254 41T260 87V280L94 579Q66 630 53 646T21 668L-4 675V693H255V675L230 669Q189 660 189 633Q189 614 208 579L343 324H347L464 579Q479 610 479 631Q479 646 471 654T440 668L409
675V693H606V675L584 668Q559 660 544 642T501 565L367 288V87Q367 50 372 41T398 27L446 18V0H181Z" />
<glyph unicode="Z" glyph-name="Z" horiz-adv-x="550" d="M25 0V31L409 655V659H344Q221 659 187 652T132 614Q111 582 79 501H57L67 693H527V662L146 38V34H209Q337 34 378 42T440 77Q461 107 502 208H526L513 0H25Z" />
<glyph unicode="[" glyph-name="bracketleft" horiz-adv-x="343" d="M100 -130V734H313V716L224 705Q200 702 194 692T187 642V-38Q187 -77 193 -87T224 -101L313 -112V-130H100Z" />
<glyph unicode="\" glyph-name="backslash" horiz-adv-x="369" d="M323 -130L20 734H66L369 -130H323Z" />
<glyph unicode="]" glyph-name="bracketright" horiz-adv-x="343" d="M30 -130V-112L119 -101Q143 -98 149 -88T156 -38V642Q156 681 150 691T119 705L30 716V734H243V-130H30Z" />
<glyph unicode="^" glyph-name="asciicircum" horiz-adv-x="399" d="M57 476L44 488L182 703H217L355 488L342 476L200 602L57 476Z" />
<glyph unicode="_" glyph-name="underscore" horiz-adv-x="336" d="M-2 -174V-130H338V-174H-2Z" />
<glyph unicode="`" glyph-name="grave" horiz-adv-x="500" d="M358 579L165 639Q128 651 128 685Q128 701 140 714T169 728Q188 728 207 713L364 593L358 579Z" />
<glyph unicode="a" glyph-name="a" horiz-adv-x="490" d="M171 -13Q101 -13 62 21T22 120Q22 219 165 252L308 286V389Q308 445 291 470T215 495Q183 495 171 487T156 456Q154 439 152 430T144 411T129 396T103 391Q76 391 63 405T50 440Q50 469 80 489T150 517T235
525Q406 525 406 395V87Q406 49 432 35Q445 28 480 26V11Q449 -12 394 -12Q323 -12 312 46H307Q289 21 251 4T171 -13ZM213 36Q246 36 271 49T308 83V245L232 237Q179 231 151 206T122 128Q122 85 146 61T213 36Z" />
<glyph unicode="b" glyph-name="b" horiz-adv-x="561" d="M249 -12Q138 -12 64 25V650Q64 678 59 686T35 703L-7 723V739L159 755L166 749Q162 707 162 630V549L160 465H164Q241 524 332 524Q370 524 403 512T465 474T512 397T529 279Q529 140 452 64T249 -12ZM260
20Q346 20 386 75T426 259Q426 466 273 466Q225 466 162 436V57Q204 20 260 20Z" />
<glyph unicode="c" glyph-name="c" horiz-adv-x="467" d="M260 -12Q150 -12 89 59T28 248Q28 310 45 359T91 438T157 489T232 517T308 525Q377 525 411 503T446 441Q446 417 430 402T388 387Q361 387 349 400T333 441Q328 474 319 483T282 493Q215 493 174 443T132
284Q132 47 293 47Q377 47 452 89V61Q422 34 372 11T260 -12Z" />
<glyph unicode="d" glyph-name="d" horiz-adv-x="575" d="M229 -12Q147 -12 90 48T32 239Q32 377 112 450T309 524Q360 524 400 512Q399 552 399 588V650Q399 678 394 686T370 703L328 723V739L493 755L500 749Q497 707 497 630V102Q497 70 502 60T526 40L563
23V9L407 -12L400 -6L402 47H398Q321 -12 229 -12ZM283 43Q300 43 315 45T344 52T365 59T385 68T399 76V450Q355 492 302 492Q221 492 178 437T135 259Q135 43 283 43Z" />
<glyph unicode="e" glyph-name="e" horiz-adv-x="499" d="M271 -12Q152 -12 90 61T28 260Q28 377 99 451T271 525Q471 525 471 276H132Q133 47 303 47Q375 47 461 89V61Q371 -12 271 -12ZM267 495Q210 495 174 448T132 306L361 318Q361 412 341 453T267 495Z" />
<glyph unicode="f" glyph-name="f" horiz-adv-x="303" d="M20 0V17L60 28Q75 32 80 42T86 80V468H17V486L86 510V555Q86 647 147 702T306 757Q351 757 374 741T397 699Q397 679 384 666T349 652Q300 652 293 702Q291 717 287 722T274 727Q237 727 211 698T184
608V509H296L286 468H184V85Q184 51 189 41T210 28L263 17V0H20Z" />
<glyph unicode="g" glyph-name="g" horiz-adv-x="488" d="M201 -204Q103 -204 46 -171T-12 -84Q-12 -48 18 -20T101 24V28Q35 49 35 108Q35 163 110 215V219Q75 234 51 269T27 350Q27 433 85 478T222 524Q281 524 329 499Q381 543 438 543Q462 543 477 531T492
496Q492 477 481 464T451 451Q420 451 407 481Q393 512 348 488V485Q380 467 398 434T417 359Q417 276 359 233T222 189Q177 189 135 205Q101 182 101 152Q101 113 163 113H327Q396 113 433 85T470 -14Q470 -46 456 -77T413 -137T329 -185T201 -204ZM218 -174Q296
-174 349 -143T402 -55Q402 22 309 22H145Q118 15 99 -8T79 -68Q79 -174 218 -174ZM175 217T222 217T292 247T316 347Q316 496 222 496T128 362Q128 285 151 251Z" />
<glyph unicode="h" glyph-name="h" horiz-adv-x="583" d="M20 0V17L60 28Q75 32 80 42T86 80V650Q86 678 81 686T57 703L15 723V739L181 755L188 749Q184 697 184 630V549L181 461H185Q281 524 369 524Q442 524 472 492T502 391V80Q502 52 507 42T528 28L568 17V0H338V17L378
28Q394 32 399 41T404 80V369Q404 421 385 441T319 462Q268 462 184 436V80Q184 50 189 41T210 28L250 17V0H20Z" />
<glyph unicode="i" glyph-name="i" horiz-adv-x="264" d="M20 0V17L60 28Q75 32 80 42T86 80V415Q86 443 81 451T57 469L20 488V502L181 523L188 519Q184 476 184 425V80Q184 50 189 41T210 28L250 17V0H20ZM156 602T131 602T89 620T71 661Q71 685 88 702T131
720T173 703T191 661Q191 638 174 620Z" />
<glyph unicode="j" glyph-name="j" horiz-adv-x="256" d="M6 -208Q-37 -208 -59 -190T-82 -143Q-82 -124 -69 -112T-33 -99Q12 -99 18 -144Q21 -166 24 -172T36 -178Q86 -178 86 -107V415Q86 443 81 451T57 469L20 488V502L181 523L188 519Q184 476 184 425V-2Q184
-109 135 -158T6 -208ZM154 602T129 602T87 620T69 661Q69 685 86 702T129 720T171 703T189 661Q189 638 172 620Z" />
<glyph unicode="k" glyph-name="k" horiz-adv-x="522" d="M395 0Q303 100 201 252V259L317 391Q363 444 363 466Q363 479 336 487L322 492V509H498V492L468 482Q447 475 431 463T386 420L277 303Q378 150 478 43Q489 30 505 26L533 17V0H395ZM20 0V17L60 28Q75
32 80 42T86 80V650Q86 678 81 686T57 703L15 723V739L181 755L188 749Q184 697 184 630V80Q184 50 189 41T210 28L250 17V0H20Z" />
<glyph unicode="l" glyph-name="l" horiz-adv-x="265" d="M20 0V17L60 28Q75 32 80 42T86 80V650Q86 678 81 686T57 703L15 723V739L181 755L188 749Q184 697 184 630V80Q184 50 189 41T210 28L250 17V0H20Z" />
<glyph unicode="m" glyph-name="m" horiz-adv-x="869" d="M20 0V17L60 28Q75 32 80 42T86 80V415Q86 443 81 451T57 469L20 488V502L176 523L183 517L181 461H185Q281 524 360 524Q411 524 437 508T478 459H482Q592 524 669 524Q732 524 760 492T788 390V80Q788
52 793 42T814 28L854 17V0H624V17L664 28Q680 32 685 41T690 80V368Q690 420 674 441T614 462Q554 462 484 434Q486 414 486 390V80Q486 52 491 42T512 28L552 17V0H322V17L362 28Q378 32 383 41T388 80V368Q388 419 372 440T312 462T184 436V80Q184 50 189 41T210
28L250 17V0H20Z" />
<glyph unicode="n" glyph-name="n" horiz-adv-x="583" d="M20 0V17L60 28Q75 32 80 42T86 80V415Q86 443 81 451T57 469L20 488V502L176 523L183 519L181 461H185Q281 524 369 524Q442 524 472 492T502 391V80Q502 52 507 42T528 28L568 17V0H338V17L378 28Q394
32 399 41T404 80V369Q404 421 385 441T319 462Q268 462 184 436V80Q184 50 189 41T210 28L250 17V0H20Z" />
<glyph unicode="o" glyph-name="o" horiz-adv-x="552" d="M276 -13Q167 -13 98 57T28 255Q28 380 101 452T276 525Q386 525 455 457T524 261Q524 135 451 61T276 -13ZM280 17Q416 17 416 247Q416 379 381 437T273 495Q136 495 136 269Q136 137 171 77T280 17Z" />
<glyph unicode="p" glyph-name="p" horiz-adv-x="583" d="M20 -199V-182L60 -171Q76 -167 81 -157T86 -119V415Q86 443 81 451T57 469L20 488V502L176 523L183 519L182 465H186Q263 524 354 524Q392 524 425 512T487 474T534 397T551 279Q551 139 475 64T269 -12Q227
-12 183 1Q184 -29 184 -63V-119Q184 -150 189 -159T210 -171L263 -182V-199H20ZM280 20Q367 20 407 75T448 259Q448 466 295 466Q247 466 184 436V57Q226 20 280 20Z" />
<glyph unicode="q" glyph-name="q" horiz-adv-x="567" d="M320 -199V-182L373 -171Q389 -168 394 -159T399 -119V-21L400 46H396Q321 -12 229 -12Q147 -12 90 48T32 239Q32 377 112 450T309 524Q386 524 449 488H453L485 526L497 522V-119Q497 -147 502 -156T523
-171L563 -182V-199H320ZM283 43Q300 43 315 45T344 52T365 59T385 68T399 76V450Q355 492 302 492Q221 492 178 437T135 259Q135 43 283 43Z" />
<glyph unicode="r" glyph-name="r" horiz-adv-x="403" d="M20 0V17L60 28Q75 32 80 42T86 80V415Q86 443 81 451T57 469L20 488V502L176 523L183 517L181 457H185Q213 485 252 505T327 525Q358 525 375 510T392 466Q392 439 377 424T339 409Q298 409 284 447Q280
458 277 461T267 464Q252 464 225 451T184 423V80Q184 50 189 41T210 28L260 17V0H20Z" />
<glyph unicode="s" glyph-name="s" horiz-adv-x="407" d="M181 -12Q101 -12 32 12L29 159H49Q64 122 101 63Q117 37 135 28T191 18Q237 18 266 42T295 107Q295 146 268 170T177 221Q106 249 69 284T32 375Q32 443 85 484T217 525Q290 525 345 504L349 377H331Q308
425 281 461Q254 495 205 495Q109 495 109 417Q109 383 137 357T226 306Q303 276 341 242T379 154Q379 82 325 35T181 -12Z" />
<glyph unicode="t" glyph-name="t" horiz-adv-x="323" d="M187 -12Q137 -12 106 13T74 93V468H5V485Q108 517 148 629H172V509H312L302 468H172V103Q172 41 238 41Q273 41 316 54V34Q257 -12 187 -12Z" />
<glyph unicode="u" glyph-name="u" horiz-adv-x="576" d="M215 -12Q152 -12 117 22T82 119V425Q82 451 78 458T56 473L16 491V506L170 523L180 515V139Q180 49 265 49Q311 49 400 81V425Q400 452 396 458T374 473L334 491V506L488 523L498 515V102Q498 70 503
60T527 40L564 23V9L408 -12L401 -6L403 56H399Q298 -12 215 -12Z" />
<glyph unicode="v" glyph-name="v" horiz-adv-x="506" d="M231 0L69 417Q55 452 46 464T16 484L-8 492V509H220V492L193 485Q176 480 171 474T166 453Q166 437 179 401L283 120H287L390 401Q402 436 402 455Q402 478 376 485L349 492V509H512V492L484 484Q466
479 458 465T434 407L278 0H231Z" />
<glyph unicode="w" glyph-name="w" horiz-adv-x="762" d="M219 0L69 417Q57 451 47 464T16 484L-8 492V509H220V492L193 485Q176 480 171 474T166 453Q166 444 179 401L271 120H275L366 382L354 417Q343 450 333 464T306 484L282 492V509H493V492L466 485Q444
479 444 453Q444 437 457 401L553 120H557L648 401Q660 437 660 455Q660 478 634 485L607 492V509H770V492L742 484Q724 479 716 465T692 407L548 0H501L386 328H383L266 0H219Z" />
<glyph unicode="x" glyph-name="x" horiz-adv-x="535" d="M17 0V17L45 25Q70 32 85 46T126 98L221 237L101 413Q68 461 58 472T26 488L10 492V509H239V492L215 487Q193 482 193 462Q193 446 214 413L286 300H289L345 399Q370 444 370 464Q370 480 349 485L319
492V509H499V492L471 484Q443 476 430 463T391 409L308 277L434 96Q455 66 463 55T484 34T513 20L525 17V0H296V17L322 22Q345 27 345 45Q345 59 321 96L242 215H239L174 108Q146 62 146 44Q146 28 179 21L197 17V0H17Z" />
<glyph unicode="y" glyph-name="y" horiz-adv-x="503" d="M96 -206Q55 -206 33 -189T11 -146Q11 -123 25 -110T64 -97Q105 -97 117 -138Q121 -150 124 -153T137 -156Q174 -156 220 -41L235 -4L71 417Q55 457 48 467T20 484L-4 492V509H220V492L193 485Q176 480
171 474T165 455Q165 438 179 401L285 119H289L390 401Q404 441 404 459Q404 471 398 476T376 485L349 492V509H511V492L483 484Q467 479 459 466T433 407L263 -39Q248 -78 237 -102T206 -153T159 -193T96 -206Z" />
<glyph unicode="z" glyph-name="z" horiz-adv-x="457" d="M20 0V23L320 476V480H229Q172 480 153 475T121 450Q97 417 66 354H48L55 509H440V488L138 33V29H218Q295 29 319 37T361 70Q394 120 412 166H431L420 0H20Z" />
<glyph unicode="{" glyph-name="braceleft" horiz-adv-x="355" d="M318 -130Q208 -126 159 -102T110 -26Q110 2 135 103T160 223Q160 286 45 291V317Q160 322 160 387Q160 405 135 503T110 630Q110 682 159 706T318 734V716Q244 705 224 692T204 634Q204 589 219
514T234 410Q234 334 112 306V302Q179 290 206 266T234 200Q234 172 219 94T204 -30Q204 -74 224 -87T318 -112V-130Z" />
<glyph unicode="|" glyph-name="bar" horiz-adv-x="226" d="M90 -130V734H136V-130H90Z" />
<glyph unicode="}" glyph-name="braceright" horiz-adv-x="355" d="M37 -130V-112Q111 -101 131 -88T151 -30Q151 15 136 92T121 198Q121 274 243 302V306Q176 318 149 342T121 408Q121 436 136 512T151 634Q151 678 131 691T37 716V734Q147 730 196 706T245 630Q245
602 220 503T195 385Q195 322 310 317V291Q195 286 195 221Q195 203 220 103T245 -26Q245 -78 196 -102T37 -130Z" />
<glyph unicode="~" glyph-name="asciitilde" horiz-adv-x="368" d="M46 229L30 237Q49 278 58 295T84 329T122 345Q146 345 198 329T270 313Q284 313 295 323T322 358L338 350Q319 309 310 292T284 258T246 242Q222 242 170 258T98 274Q84 274 73 264T46 229Z" />
</font>
</defs>
</svg>
