<?xml version="1.0" standalone="no"?> <!DOCTYPE svg PUBLIC "-//W3C//DTD SVG 1.0//EN" "http://www.w3.org/TR/2001/REC-SVG-20010904/DTD/svg10.dtd" > <svg xmlns="http://www.w3.org/2000/svg" width="100%" height="100%">
<defs >
<font horiz-adv-x="572" ><font-face
    font-family="Publico Headline Bold"
    units-per-em="1000"
    panose-1="2 4 8 2 6 5 4 6 2 3"
    ascent="801"
    descent="-199"
    alphabetic="0" />
<missing-glyph horiz-adv-x="500" />
<glyph unicode=" " glyph-name="space" horiz-adv-x="214" />
<glyph unicode="!" glyph-name="exclam" horiz-adv-x="286" d="M143 -7Q109 -7 85 17T60 76Q60 111 84 134T143 158Q177 158 202 134T228 76Q228 43 202 18T143 -7ZM128 215L53 569Q37 635 63 669T143 703Q197 703 223 669T234 569L159 215H128Z" />
<glyph unicode="&quot;" glyph-name="quotedbl" horiz-adv-x="388" d="M96 449L42 607Q25 657 46 682T106 708T166 683T170 607L118 449H96ZM270 449L218 607Q200 657 221 682T282 708Q321 708 342 683T345 607L292 449H270Z" />
<glyph unicode="#" glyph-name="numbersign" horiz-adv-x="523" d="M87 0L121 180H30L50 286H142L165 410H75L94 516H186L220 693H273L239 516H354L388 693H441L407 516H498L479 410H386L363 286H454L435 180H342L308 0H255L289 180H174L140 0H87ZM195 286H310L333
410H218L195 286Z" />
<glyph unicode="$" glyph-name="dollar" horiz-adv-x="523" d="M10 112Q10 145 29 160T79 176Q116 176 135 157T159 81Q161 51 174 39T229 25V276Q117 318 72 371T26 499Q26 582 85 638T240 702V767H283V704Q388 702 438 668T489 586Q489 557 469 539T419 521Q378
521 360 543T337 620Q334 646 323 656T283 668V434Q406 385 453 333T501 199Q501 117 438 57T273 -11V-110H229V-11Q10 -7 10 112ZM366 137Q366 216 273 258V26Q318 31 342 60T366 137ZM150 607T150 567T169 502T240 452V668Q198 662 174 635Z" />
<glyph unicode="%" glyph-name="percent" horiz-adv-x="781" d="M204 344Q130 344 78 389T25 520Q25 582 56 625T127 686T207 704Q278 704 332 657T387 526Q387 439 331 392T204 344ZM206 378Q242 378 255 407T268 519Q268 608 254 639T206 671Q174 671 160 642T145
527Q145 440 158 409T206 378ZM572 -13Q498 -13 446 33T393 163Q393 253 451 300T576 348Q646 348 700 301T755 170Q755 82 699 35T572 -13ZM574 21Q610 21 623 50T636 162Q636 252 622 283T574 314Q542 314 528 285T513 171Q513 83 526 52T574 21ZM86 -50L612
714H674L147 -50H86Z" />
<glyph unicode="&amp;" glyph-name="ampersand" horiz-adv-x="734" d="M271 -12Q145 -12 82 41T18 177Q18 303 190 370Q142 444 142 512Q142 593 203 649T352 705Q433 705 483 668T533 570Q533 474 361 402Q452 277 524 191Q562 255 562 306Q562 338 526 347L498
355V382H721V355L697 348Q671 341 651 320T602 249Q565 178 552 158L632 72Q666 40 688 35L715 28V0H484Q470 13 443 42Q370 -12 271 -12ZM315 41Q373 41 414 73Q298 202 209 340Q174 296 174 211Q174 132 213 87T315 41ZM342 428Q381 453 401 485T422 568Q422
616 404 641T353 667Q320 667 301 644T282 579Q282 510 342 428Z" />
<glyph unicode="&apos;" glyph-name="quotesingle" horiz-adv-x="210" d="M94 449L41 607Q23 657 44 682T105 708Q144 708 165 683T168 607L116 449H94Z" />
<glyph unicode="(" glyph-name="parenleft" horiz-adv-x="320" d="M289 -141Q243 -109 203 -71T122 23T59 150T35 302Q35 375 59 446T122 574T203 672T289 745L310 726Q240 659 198 552T156 322Q156 168 195 64T310 -122L289 -141Z" />
<glyph unicode=")" glyph-name="parenright" horiz-adv-x="320" d="M31 -141L10 -122Q164 47 164 308Q164 443 123 550T10 726L31 745Q76 714 117 673T198 576T261 449T285 302Q285 224 262 153T198 26T118 -69T31 -141Z" />
<glyph unicode="*" glyph-name="asterisk" horiz-adv-x="364" d="M82 410Q69 420 64 433T66 463T95 493L167 539L82 537Q45 534 31 552T25 595Q32 618 53 624T106 608L172 554L141 634Q127 669 140 688T180 707Q205 707 217 690T217 634L187 554L253 608Q284 631
305 625T334 594Q342 569 328 551T277 536L191 539L263 493Q285 480 291 464T293 434T275 411Q262 402 248 402T221 412T201 448L179 531L156 448Q148 413 124 404T82 410Z" />
<glyph unicode="+" glyph-name="plus" horiz-adv-x="474" d="M205 130V310H37V367H205V546H269V367H437V310H269V130H205Z" />
<glyph unicode="," glyph-name="comma" horiz-adv-x="234" d="M26 -115L18 -93Q129 -43 126 26Q116 16 96 16Q67 16 49 35T30 86T53 138T112 158Q150 158 176 132T203 58Q203 -7 157 -52T26 -115Z" />
<glyph unicode="-" glyph-name="hyphen" horiz-adv-x="276" d="M21 239L33 339H254L241 239H21Z" />
<glyph unicode="." glyph-name="period" horiz-adv-x="229" d="M114 -7Q80 -7 56 17T31 76Q31 111 55 134T114 158Q148 158 173 135T198 76Q198 43 173 18T114 -7Z" />
<glyph unicode="/" glyph-name="slash" horiz-adv-x="385" d="M0 -130L311 734H368L56 -130H0Z" />
<glyph unicode="0" glyph-name="zero" horiz-adv-x="686" d="M339 -12Q210 -12 122 77T33 338Q33 415 53 478T106 583T180 652T263 693T346 705Q404 705 457 683T555 619T626 508T653 351Q653 259 625 187T551 73T450 10T339 -12ZM343 27Q411 27 438 94T466 336Q466
468 452 541T413 640T343 666Q301 666 276 642T236 548T221 353Q221 225 234 154T272 55T343 27Z" />
<glyph unicode="1" glyph-name="one" horiz-adv-x="394" d="M22 0V28L64 35Q92 41 100 53T108 108V541L23 547V577Q184 610 263 701L290 695V108Q290 64 297 53T333 35L373 28V0H22Z" />
<glyph unicode="2" glyph-name="two" horiz-adv-x="534" d="M14 0V81Q141 182 224 277Q279 339 303 393T328 525Q328 666 237 666Q206 666 196 656T183 617Q181 559 161 537T96 514Q62 514 44 531T25 581Q25 633 85 669T253 705Q369 705 438 654T508 504Q508 453
480 403T396 306T281 220T136 134V128H388Q425 128 438 140T476 207H505L490 0H14Z" />
<glyph unicode="3" glyph-name="three" horiz-adv-x="542" d="M228 -12Q122 -12 67 19T12 106Q12 172 82 172Q120 172 138 153T163 82Q169 47 179 37T225 27Q282 27 305 70T329 196Q329 278 300 308T205 339H156V382H196Q261 382 288 414T316 527Q316 666 229
666Q207 666 198 658T186 628Q181 571 165 551T106 531Q37 531 37 592Q37 644 96 674T250 705Q359 705 423 661T488 539Q488 480 443 435T305 371V368Q401 360 458 316T516 191Q516 102 442 45T228 -12Z" />
<glyph unicode="4" glyph-name="four" horiz-adv-x="588" d="M217 0V28L253 35Q280 41 287 52T295 108V194H13V248L359 693H470V266H572L562 194H470V108Q470 64 477 53T513 35L551 28V0H217ZM86 266H295V534H292L86 269V266Z" />
<glyph unicode="5" glyph-name="five" horiz-adv-x="529" d="M219 -12Q125 -12 73 19T21 102Q21 131 39 148T92 166Q132 166 150 147T172 72Q175 44 186 36T229 27Q352 27 352 172Q352 314 187 314Q119 314 76 299L65 307L107 693H393Q416 693 426 702T454 746H484L464
567H142L128 436Q174 452 245 452Q362 452 433 394T505 228Q505 124 427 56T219 -12Z" />
<glyph unicode="6" glyph-name="six" horiz-adv-x="600" d="M306 -12Q185 -12 105 70T24 313Q24 414 55 492T138 615T251 682T380 705Q461 705 508 679T555 607Q555 543 484 543Q444 543 427 561T404 626Q401 650 393 658T361 666Q219 666 210 373Q279 418 359
418Q459 418 518 366T577 215Q577 113 505 51T306 -12ZM309 27Q361 27 379 67T397 206Q397 291 372 325T293 359Q248 359 209 336V309Q209 150 229 89T309 27Z" />
<glyph unicode="7" glyph-name="seven" horiz-adv-x="510" d="M103 0Q139 168 220 303T425 566H123Q92 566 80 553T47 485H18L36 693H500V617Q400 482 355 338T295 0H103Z" />
<glyph unicode="8" glyph-name="eight" horiz-adv-x="570" d="M281 -12Q165 -12 94 33T22 160Q22 259 174 324V328Q51 393 51 508Q51 597 123 651T294 705Q388 705 454 664T521 545Q521 463 388 400V397Q470 356 509 310T548 198Q548 112 471 50T281 -12ZM290
29Q346 29 381 57T417 138Q417 188 374 220T206 309Q152 245 152 172Q152 29 290 29ZM352 417Q398 471 398 542Q398 664 286 664Q236 664 207 638T177 568Q177 523 218 490T352 417Z" />
<glyph unicode="9" glyph-name="nine" horiz-adv-x="600" d="M226 -13Q142 -13 94 13T45 88Q45 152 119 152Q155 152 172 133T198 67Q202 44 211 36T243 27Q316 27 351 91T390 318Q318 272 240 272Q141 272 83 325T24 476Q24 578 96 641T294 704Q418 704 497 623T576
380Q576 185 478 86T226 -13ZM304 332Q349 332 391 355V384Q391 543 371 604T291 666Q241 666 223 626T204 486Q204 402 228 367T304 332Z" />
<glyph unicode=":" glyph-name="colon" horiz-adv-x="236" d="M152 -7T118 -7T59 17T34 76T59 134T118 158T176 134T201 76T177 18ZM152 274T118 274T59 298T34 357T59 415T118 439T176 415T201 357T177 299Z" />
<glyph unicode=";" glyph-name="semicolon" horiz-adv-x="237" d="M29 -115L21 -93Q132 -43 129 26Q119 16 99 16Q70 16 52 35T33 86T56 138T114 158Q153 158 179 132T206 58Q206 -7 160 -52T29 -115ZM152 274T118 274T59 298T34 357T59 415T118 439T176 415T201
357T177 299Z" />
<glyph unicode="&lt;" glyph-name="less" horiz-adv-x="474" d="M436 128L36 304V359L436 535V471L103 332L436 193V128Z" />
<glyph unicode="=" glyph-name="equal" horiz-adv-x="524" d="M37 235V292H487V235H37ZM37 385V442H487V385H37Z" />
<glyph unicode="&gt;" glyph-name="greater" horiz-adv-x="474" d="M438 304L38 128V193L371 332L38 471V535L438 359V304Z" />
<glyph unicode="?" glyph-name="question" horiz-adv-x="475" d="M150 215V390Q180 400 200 410T242 437T275 482T286 548Q286 664 207 664Q187 664 181 656T171 622Q165 578 145 558T86 538Q54 538 37 555T20 600Q20 649 73 677T214 705Q324 705 383 656T443
519Q443 428 378 371T202 292V215H150ZM176 -7Q142 -7 118 17T94 76Q94 111 118 134T176 158T235 134T261 76Q261 43 235 18T176 -7Z" />
<glyph unicode="@" glyph-name="at" horiz-adv-x="884" d="M421 -146Q244 -146 135 -51T25 216Q25 340 88 445T257 610T484 670Q654 670 757 583T860 355Q860 274 836 210T771 108T685 52T591 33Q526 33 502 59T478 130H474Q448 88 409 62T327 35Q276 35 247 71T217
176Q217 309 301 402T488 496Q557 496 613 456H616L664 492L679 484Q668 456 652 371L615 178Q605 129 613 105T651 80Q702 80 743 145T784 326Q784 463 705 548T483 633Q330 633 223 525T116 239Q116 81 198 -10T443 -102Q577 -102 683 -49V-83Q644 -107 570 -126T421
-146ZM398 115Q434 115 474 182L521 430Q510 460 480 460Q434 460 395 373T355 185Q355 115 398 115Z" />
<glyph unicode="A" glyph-name="A" horiz-adv-x="689" d="M-3 0V28L22 35Q45 42 57 59T90 136L291 693H391L598 133Q618 77 630 59T665 33L686 28V0H353V28L381 35Q417 45 417 75Q417 93 398 148L373 219H174L150 147Q135 100 135 79Q135 59 144 50T178 35L206
28V0H-3ZM270 507L188 263H358L275 507H270Z" />
<glyph unicode="B" glyph-name="B" horiz-adv-x="658" d="M17 0V28L51 35Q75 41 82 53T90 108V585Q90 628 83 640T51 658L17 665V693H337Q474 693 539 654T604 529Q604 401 421 373V368Q530 356 583 316T637 195Q637 100 568 50T366 0H17ZM345 44Q398 44 423 77T449
194T422 309T329 342H270V109Q270 67 283 56T345 44ZM270 384H322Q381 384 405 413T429 512Q429 591 405 620T327 649Q300 649 270 643V384Z" />
<glyph unicode="C" glyph-name="C" horiz-adv-x="624" d="M369 -12Q215 -12 121 78T27 341Q27 523 130 614T391 705Q499 705 581 682L592 475H561Q524 555 481 616Q461 642 439 652T380 663Q293 663 256 594T219 361Q219 172 256 101T380 30Q422 30 447 42T494
86Q533 141 570 229H599L588 29Q492 -12 369 -12Z" />
<glyph unicode="D" glyph-name="D" horiz-adv-x="730" d="M17 0V28L51 35Q68 40 75 44T86 63T90 108V585Q90 628 83 640T51 658L17 665V693H356Q520 693 611 611T703 359T609 95T351 0H17ZM341 44Q432 44 472 115T513 335Q513 508 472 578T339 649Q290 649 272
640V135Q272 77 285 61T341 44Z" />
<glyph unicode="E" glyph-name="E" horiz-adv-x="618" d="M17 0V28L51 35Q68 40 75 44T86 63T90 108V585Q90 628 83 640T51 658L17 665V693H566L576 491H545Q515 559 488 598Q465 632 442 640T364 649Q310 649 272 639V381H299Q350 381 369 387T398 411Q417 445
429 488H459V227H429Q417 269 398 308Q389 327 372 332T299 338H272V144Q272 75 286 60T373 44Q432 44 455 55T504 104Q528 141 568 238H600L586 0H17Z" />
<glyph unicode="F" glyph-name="F" horiz-adv-x="591" d="M17 0V28L51 35Q75 41 82 53T90 108V585Q90 628 83 640T51 658L17 665V693H560L570 486H539Q510 553 481 596Q458 630 437 639T361 649T272 640V370H290Q345 370 364 376T394 400Q412 430 426 482H455V210H426Q410
267 394 296Q382 317 365 322T290 327H272V108Q272 63 278 52T312 36L357 28V0H17Z" />
<glyph unicode="G" glyph-name="G" horiz-adv-x="690" d="M386 -12Q210 -12 119 79T27 344Q27 438 57 509T140 622T261 684T408 705Q521 705 597 682L608 472H577Q544 546 503 606Q479 641 457 652T390 663Q299 663 258 591T217 360Q217 176 252 103T381 30Q424
30 457 50V200Q457 244 450 255T417 273L383 281V308H687V281L662 274Q641 268 635 256T629 200V26Q585 10 516 -1T386 -12Z" />
<glyph unicode="H" glyph-name="H" horiz-adv-x="768" d="M17 0V28L51 35Q75 41 82 53T90 108V585Q90 628 83 640T51 658L17 665V693H344V665L311 658Q285 651 279 640T272 585V377H496V585Q496 629 490 640T457 658L424 665V693H751V665L718 658Q693 652 686
640T678 585V108Q678 65 685 53T718 35L751 28V0H424V28L457 35Q483 42 489 53T496 108V331H272V108Q272 64 278 53T311 35L344 28V0H17Z" />
<glyph unicode="I" glyph-name="I" horiz-adv-x="368" d="M17 0V28L54 35Q79 41 86 52T93 108V585Q93 629 86 640T54 658L17 665V693H352V665L315 658Q290 652 283 641T275 585V108Q275 64 282 53T315 35L352 28V0H17Z" />
<glyph unicode="J" glyph-name="J" horiz-adv-x="362" d="M23 -184Q-48 -184 -85 -159T-122 -95Q-122 -64 -104 -47T-53 -29Q-15 -29 3 -49T31 -121Q34 -136 37 -140T50 -144Q90 -144 90 -64V585Q90 628 83 640T51 658L16 665V693H345V665L311 658Q286 652 279
640T272 585V64Q272 -47 205 -115T23 -184Z" />
<glyph unicode="K" glyph-name="K" horiz-adv-x="718" d="M490 0Q379 152 296 329V347L473 551Q507 590 507 621Q507 648 474 657L445 665V693H686V665L663 659Q636 652 617 637T556 574L428 431Q530 227 655 59Q669 40 687 35L717 28V0H490ZM17 0V28L51 35Q75
41 82 53T90 108V585Q90 628 83 640T51 658L17 665V693H344V665L311 658Q285 651 279 640T272 585V108Q272 64 278 53T311 35L344 28V0H17Z" />
<glyph unicode="L" glyph-name="L" horiz-adv-x="597" d="M17 0V28L51 35Q75 41 82 53T90 108V585Q90 628 83 640T51 658L17 665V693H351V665L311 657Q286 651 279 640T272 585V132Q272 73 285 59T359 44Q418 44 441 54T487 101Q520 154 556 245H588L572 0H17Z" />
<glyph unicode="M" glyph-name="M" horiz-adv-x="878" d="M17 0V28L47 35Q73 41 81 54T90 118V585Q90 628 83 640T51 658L17 665V693H298L440 276H443L582 693H862V665L828 658Q803 652 796 640T788 585V108Q788 65 795 53T828 35L862 28V0H534V28L567 35Q592
41 599 52T606 108V599H602L410 15H345L146 599H142V123Q142 68 149 55T187 35L218 28V0H17Z" />
<glyph unicode="N" glyph-name="N" horiz-adv-x="698" d="M539 -1L146 576H142V123Q142 69 150 55T189 35L225 28V0H17V28L47 35Q73 41 81 54T90 118V585Q90 628 83 640T51 658L17 665V693H280L554 289H558V570Q558 625 551 638T511 658L473 665V693H683V665L653
658Q627 652 619 639T610 575V-1H539Z" />
<glyph unicode="O" glyph-name="O" horiz-adv-x="728" d="M360 -12Q294 -12 235 9T129 72T54 182T26 338Q26 432 56 505T137 621T246 684T368 705Q435 705 493 685T599 623T674 513T702 354Q702 259 672 186T591 71T482 9T360 -12ZM366 30Q443 30 477 95T512 332Q512
509 478 586T362 663Q286 663 251 597T216 359Q216 182 249 106T366 30Z" />
<glyph unicode="P" glyph-name="P" horiz-adv-x="643" d="M17 0V28L51 35Q75 41 82 53T90 108V585Q90 628 83 639T54 657L17 665V693H346Q625 693 625 489Q625 398 560 336T377 274Q331 274 301 286V317Q379 318 409 352T440 482Q440 579 417 614T334 649Q295
649 272 642V108Q272 65 278 54T312 37L356 28V0H17Z" />
<glyph unicode="Q" glyph-name="Q" horiz-adv-x="728" d="M591 -174Q489 -174 398 -109Q331 -64 257 6Q153 34 90 118T26 338Q26 432 56 505T137 621T246 684T368 705Q435 705 493 685T599 623T674 513T702 354Q702 212 639 130T472 17V14Q514 -24 564 -57Q626
-96 682 -96Q714 -96 765 -76V-103Q697 -174 591 -174ZM366 28Q443 28 477 94T512 332Q512 509 478 586T362 664Q286 664 251 597T216 359Q216 181 249 105T366 28Z" />
<glyph unicode="R" glyph-name="R" horiz-adv-x="704" d="M17 0V28L51 35Q75 41 82 53T90 108V585Q90 628 83 640T51 658L17 665V693H345Q491 693 558 648T625 510Q625 384 489 343V340Q563 179 653 58Q666 41 691 33L707 28V0H485Q444 56 399 143T324 303Q276
303 271 304V108Q271 64 278 53T309 35L343 28V0H17ZM318 342Q383 342 412 376T441 496T419 615T337 649Q290 649 271 642V346Q291 342 318 342Z" />
<glyph unicode="S" glyph-name="S" horiz-adv-x="528" d="M240 -12Q111 -12 36 20L24 213H56Q99 131 131 86Q155 53 180 42T249 30Q306 30 335 58T364 136Q364 181 333 211T216 276Q111 316 70 367T29 497Q29 589 97 647T277 705Q390 705 453 681L463 510H432Q398
578 362 620Q341 645 322 654T264 664Q213 664 186 640T158 570Q158 526 184 500T293 442Q408 397 456 347T504 221Q504 121 434 55T240 -12Z" />
<glyph unicode="T" glyph-name="T" horiz-adv-x="634" d="M148 0V28L185 35Q212 41 219 52T226 108V649H216Q171 649 153 641T114 603Q90 569 45 462H13L21 693H613L621 462H590Q547 565 520 603Q498 634 481 641T418 649H408V108Q408 63 414 52T449 35L486 28V0H148Z" />
<glyph unicode="U" glyph-name="U" horiz-adv-x="703" d="M373 -12Q84 -12 84 222V585Q84 628 77 640T44 658L10 665V693H338V665L305 658Q280 652 273 641T266 585V202Q266 124 301 89T421 53Q569 53 569 216V570Q569 624 561 637T521 658L482 665V693H693V665L662
658Q637 652 629 639T621 575V209Q621 111 559 50T373 -12Z" />
<glyph unicode="V" glyph-name="V" horiz-adv-x="675" d="M298 0L87 560Q66 615 54 634T20 660L-3 665V693H329V665L301 658Q266 650 266 619Q266 604 285 545L408 187H413L527 544Q542 590 542 616Q542 650 504 658L473 665V693H678V665L653 658Q632 652 621
633T590 557L397 0H298Z" />
<glyph unicode="W" glyph-name="W" horiz-adv-x="1013" d="M274 0L84 570Q66 622 56 638T24 660L-1 665V693H322V665L297 659Q264 650 264 621Q264 598 281 545L390 196H395L489 484L458 584Q446 621 434 637T401 659L378 665V693H701V665L665 658Q634 650 634
617Q634 592 649 545L758 196H763L864 546Q877 588 877 617Q877 652 841 659L809 665V693H1014V665L991 660Q968 654 955 631T921 546L749 0H645L518 405H514L380 0H274Z" />
<glyph unicode="X" glyph-name="X" horiz-adv-x="701" d="M10 0V28L28 32Q54 40 72 56T122 120L261 334L107 586Q90 614 83 623T65 643T37 658L16 665V693H368V665L332 658Q303 650 303 626Q303 607 330 560L412 416H415L497 563Q518 601 518 627Q518 652 482
659L453 665V693H670V665L646 659Q625 653 611 637T563 569L442 373L602 109Q630 65 642 52T673 33L692 28V0H344V28L379 34Q410 40 410 66Q410 84 383 132L290 293H287L195 137Q167 91 167 67Q167 40 197 34L228 28V0H10Z" />
<glyph unicode="Y" glyph-name="Y" horiz-adv-x="648" d="M166 0V28L203 35Q231 41 237 52T244 108V285L88 573Q63 621 50 636T16 659L-4 665V693H338V665L309 659Q271 649 271 618Q271 600 289 561L394 347H399L491 554Q508 589 508 617Q508 648 467 658L440
665V693H652V665L631 659Q610 652 594 631T554 562L426 291V108Q426 63 433 52T468 35L505 28V0H166Z" />
<glyph unicode="Z" glyph-name="Z" horiz-adv-x="579" d="M18 0V44L368 649V652H332Q230 652 201 645T148 606Q116 560 75 471H45L57 693H565V649L216 47V43H258Q364 43 396 52T456 97Q492 146 533 244H565L549 0H18Z" />
<glyph unicode="[" glyph-name="bracketleft" horiz-adv-x="338" d="M87 -130V734H316V706L250 699Q211 694 201 682T190 624V-20Q190 -66 200 -78T250 -95L316 -102V-130H87Z" />
<glyph unicode="\" glyph-name="backslash" horiz-adv-x="385" d="M328 -130L17 734H73L385 -130H328Z" />
<glyph unicode="]" glyph-name="bracketright" horiz-adv-x="338" d="M22 -130V-102L88 -95Q127 -90 138 -78T149 -20V624Q149 670 139 682T88 699L22 706V734H251V-130H22Z" />
<glyph unicode="^" glyph-name="asciicircum" horiz-adv-x="465" d="M73 442L58 459L205 697H259L407 459L391 442L231 579L73 442Z" />
<glyph unicode="_" glyph-name="underscore" horiz-adv-x="352" d="M-3 -169V-113H355V-169H-3Z" />
<glyph unicode="`" glyph-name="grave" horiz-adv-x="495" d="M355 577L172 621Q125 632 125 677Q125 700 140 718T179 737Q206 737 232 713L363 595L355 577Z" />
<glyph unicode="a" glyph-name="a" horiz-adv-x="532" d="M167 -12Q96 -12 57 22T17 120T61 217T197 274L298 299V386Q298 448 283 471T227 494Q204 494 195 487T185 458Q181 410 164 390T107 370Q74 370 57 386T39 432Q39 480 97 506T260 533Q458 533 458 396V119Q458
90 462 77T481 57Q495 49 528 47V23Q484 -12 411 -12Q324 -12 307 49H302Q254 -12 167 -12ZM242 59Q283 59 298 88V248L252 244Q212 241 193 219T174 145Q174 59 242 59Z" />
<glyph unicode="b" glyph-name="b" horiz-adv-x="605" d="M286 -12Q148 -12 59 45V627Q59 663 54 673T28 695L-9 713V736L211 756L222 748Q219 701 219 631V563L216 466H221Q298 533 387 533Q424 533 457 520T519 480T565 403T582 287Q582 137 502 63T286 -12ZM298
28Q361 28 389 75T418 253Q418 357 388 401T299 446Q264 446 219 428V64Q248 28 298 28Z" />
<glyph unicode="c" glyph-name="c" horiz-adv-x="496" d="M270 -12Q150 -12 85 60T19 258Q19 333 46 388T119 474T216 519T323 533Q398 533 440 509T482 440Q482 409 463 390T411 370Q346 370 339 448Q335 476 328 484T295 492Q179 492 179 301Q179 188 216 131T335
74Q408 74 480 111V79Q452 45 398 17T270 -12Z" />
<glyph unicode="d" glyph-name="d" horiz-adv-x="617" d="M219 -12Q137 -12 80 51T23 242Q23 389 104 461T313 533Q350 533 389 522Q387 559 387 595V627Q387 661 382 671T356 691L315 713V736L539 756L549 748Q546 701 546 631V120Q546 83 551 73T579 53L608
41V17L401 -12L390 -4L392 53H388Q312 -12 219 -12ZM303 67Q317 67 331 70T354 75T373 83T387 89V451Q353 493 309 493Q187 493 187 275Q187 161 215 114T303 67Z" />
<glyph unicode="e" glyph-name="e" horiz-adv-x="526" d="M280 -12Q152 -12 86 60T19 262Q19 386 96 459T280 533Q503 533 507 283H177Q179 166 220 120T345 74Q420 74 492 112V79Q460 43 405 16T280 -12ZM272 495Q183 495 177 321L348 330Q348 423 332 459T272 495Z" />
<glyph unicode="f" glyph-name="f" horiz-adv-x="352" d="M11 0V27L37 34Q62 41 68 50T74 91V460H4V485L74 520V547Q74 647 141 704T325 761Q385 761 418 741T451 681Q451 655 435 640T391 625Q356 625 340 640T320 693Q318 711 314 716T301 722Q233 722 233 618V519H349L335
460H233V93Q233 58 238 49T268 35L306 27V0H11Z" />
<glyph unicode="g" glyph-name="g" horiz-adv-x="527" d="M214 -211Q104 -211 46 -181T-13 -94Q-13 -21 113 7V11Q72 20 50 45T27 107Q27 170 104 226V230Q24 270 24 358Q24 440 85 486T239 533Q306 533 362 509Q417 559 476 559Q505 559 522 545T539 505Q539
448 490 448Q469 448 459 456T439 484Q427 510 384 489V486Q454 445 454 371Q454 289 393 244T239 198Q182 198 136 215Q114 195 114 171Q114 137 164 137H339Q508 137 508 2Q508 -89 432 -150T214 -211ZM235 -172Q405 -172 405 -67Q405 -1 317 -1H149Q108 -22
108 -75Q108 -172 235 -172ZM203 237T239 237T290 264T306 361Q306 437 291 466T239 495T188 468T172 369Q172 294 187 266Z" />
<glyph unicode="h" glyph-name="h" horiz-adv-x="627" d="M11 0V27L37 34Q62 41 68 50T74 91V627Q74 663 69 673T43 695L6 713V736L226 756L237 748Q233 698 233 631V563L230 464H235Q336 533 424 533Q555 533 555 399V91Q555 58 561 49T591 34L617 27V0H338V27L362
33Q385 39 390 47T395 91V360Q395 405 379 422T326 440T233 427V91Q233 56 238 48T266 33L290 27V0H11Z" />
<glyph unicode="i" glyph-name="i" horiz-adv-x="305" d="M11 0V27L37 34Q62 41 68 50T74 91V402Q74 433 69 442T41 467L8 489V509L227 533L237 526Q233 464 233 411V91Q233 58 239 49T270 34L296 27V0H11ZM186 582T149 582T87 605T61 664T86 723T149 747T211
724T237 664T212 605Z" />
<glyph unicode="j" glyph-name="j" horiz-adv-x="300" d="M16 -212Q-48 -212 -82 -187T-116 -120Q-116 -92 -98 -77T-51 -61Q-16 -61 0 -78T21 -145Q23 -172 37 -172Q74 -172 74 -112V402Q74 433 69 442T41 467L8 489V509L227 533L237 526Q233 464 233 411V7Q233
-97 173 -154T16 -212ZM149 582Q111 582 86 605T61 664T86 723T149 747Q186 747 211 724T236 664T211 605T149 582Z" />
<glyph unicode="k" glyph-name="k" horiz-adv-x="594" d="M400 0Q321 108 248 246V262L361 384Q401 429 401 458Q401 479 364 488L349 493V519H568V493L547 487Q526 481 509 470T459 425L368 332Q464 156 539 62Q557 38 577 33L594 27V0H400ZM11 0V27L37 34Q62
41 68 50T74 91V627Q74 663 69 673T43 695L6 713V736L226 756L237 748Q233 698 233 631V91Q233 57 238 48T265 33L288 27V0H11Z" />
<glyph unicode="l" glyph-name="l" horiz-adv-x="309" d="M11 0V27L37 34Q63 41 69 50T76 91V627Q76 663 71 673T43 695L6 713V736L228 756L239 748Q235 698 235 631V91Q235 58 241 50T274 34L300 27V0H11Z" />
<glyph unicode="m" glyph-name="m" horiz-adv-x="924" d="M11 0V27L37 34Q62 41 68 50T74 91V402Q74 433 69 442T41 467L8 489V509L219 533L230 525L228 462H232Q331 533 416 533Q505 533 534 461H539Q641 533 728 533Q787 533 819 499T852 399V91Q852 58 858
49T888 34L914 27V0H638V27L661 33Q682 39 687 47T692 91V360Q692 404 678 422T630 440Q592 440 541 426Q543 410 543 392V91Q543 57 548 48T573 33L596 27V0H329V27L352 33Q373 39 378 48T383 91V360Q383 404 369 422T321 440Q290 440 233 427V91Q233 56 238 48T264
33L287 27V0H11Z" />
<glyph unicode="n" glyph-name="n" horiz-adv-x="627" d="M11 0V27L37 34Q62 41 68 50T74 91V402Q74 433 69 442T41 467L8 489V509L219 533L230 526L228 462H232Q331 533 424 533Q555 533 555 399V91Q555 58 561 49T591 34L617 27V0H338V27L362 33Q385 39 390
47T395 91V360Q395 405 379 422T326 440T233 427V91Q233 56 238 48T266 33L290 27V0H11Z" />
<glyph unicode="o" glyph-name="o" horiz-adv-x="581" d="M290 -12Q174 -12 97 58T19 259Q19 328 42 382T104 468T190 516T290 533Q406 533 484 464T562 264Q562 129 483 59T290 -12ZM293 27Q344 27 369 73T394 254Q394 352 381 406T346 477T287 494Q236 494 212
447T187 276Q187 175 199 120T232 46T293 27Z" />
<glyph unicode="p" glyph-name="p" horiz-adv-x="620" d="M11 -206V-179L37 -172Q62 -165 68 -156T74 -114V402Q74 433 69 442T41 467L8 489V509L219 533L230 526L228 464H233Q314 533 401 533Q482 533 539 474T597 287Q597 137 519 63T308 -12Q269 -12 232 -2Q233
-28 233 -63V-114Q233 -148 238 -157T268 -171L303 -179V-206H11ZM312 28Q375 28 404 75T433 253Q433 357 403 401T314 446Q281 446 233 428V64Q264 28 312 28Z" />
<glyph unicode="q" glyph-name="q" horiz-adv-x="609" d="M317 -206V-179L352 -171Q376 -166 381 -157T387 -114V-27L392 53H387Q313 -12 219 -12Q137 -12 80 51T23 242Q23 389 104 461T313 533Q404 533 477 490H484L529 533L546 526V-114Q546 -147 552 -156T583
-172L609 -179V-206H317ZM303 67Q317 67 331 70T354 75T373 83T387 89V457Q351 493 309 493Q187 493 187 275Q187 161 215 114T303 67Z" />
<glyph unicode="r" glyph-name="r" horiz-adv-x="463" d="M11 0V27L37 34Q62 41 68 50T74 91V402Q74 433 69 442T41 467L8 489V509L219 533L230 525L228 456H232Q304 533 378 533Q414 533 434 514T455 458Q455 423 436 403T386 383Q354 383 340 392T309 428Q302
441 288 441Q261 441 233 415V91Q233 56 238 47T267 34L300 27V0H11Z" />
<glyph unicode="s" glyph-name="s" horiz-adv-x="432" d="M188 -12Q101 -12 31 9L24 165H52Q79 113 117 66Q147 28 204 28Q241 28 264 46T287 99T262 153T168 200Q96 227 60 265T24 365Q24 439 80 486T237 533Q324 533 374 514L380 378H353Q325 429 296 462Q267
494 219 494Q187 494 168 477T148 429T168 379T247 337Q337 304 375 265T413 167Q413 86 354 37T188 -12Z" />
<glyph unicode="t" glyph-name="t" horiz-adv-x="365" d="M202 -12Q133 -12 98 21T63 126V460H0V484Q124 532 166 652H223V519H356L343 460H223V136Q223 98 237 82T288 66Q320 66 360 75V47Q296 -12 202 -12Z" />
<glyph unicode="u" glyph-name="u" horiz-adv-x="624" d="M203 -12Q142 -12 107 22T72 121V407Q72 438 68 447T41 470L6 490V511L220 533L232 524V160Q232 117 248 98T300 78Q334 78 394 98V407Q394 438 389 448T362 470L328 490V511L541 533L553 524V120Q553
83 558 73T586 53L615 41V17L408 -12L397 -4L399 63H394Q292 -12 203 -12Z" />
<glyph unicode="v" glyph-name="v" horiz-adv-x="556" d="M240 0L74 408Q57 451 46 466T14 487L-5 493V519H296V493L269 486Q238 477 238 445Q238 428 251 391L335 160H340L421 391Q434 426 434 447Q434 477 403 486L376 493V519H561V493L542 487Q522 480 511
463T480 397L325 0H240Z" />
<glyph unicode="w" glyph-name="w" horiz-adv-x="840" d="M226 0L74 408Q58 451 46 466T14 487L-5 493V519H277V493L255 487Q230 480 230 456Q230 441 246 391L320 160H326L400 375L389 408Q374 452 364 467T337 487L317 493V519H596V493L569 486Q541 479 541
447Q541 427 553 391L629 160H634L706 391Q718 430 718 448Q718 478 687 486L660 493V519H845V493L827 487Q807 480 794 463T764 397L620 0H534L426 308H423L311 0H226Z" />
<glyph unicode="x" glyph-name="x" horiz-adv-x="587" d="M9 0V27L31 32Q54 38 70 53T113 107L211 247L95 417Q65 459 53 471T21 489L7 493V519H309V493L288 488Q258 481 258 460Q258 443 278 412L342 316H345L391 398Q412 436 412 458Q412 479 381 488L359 493V519H556V493L536
487Q514 482 495 464T451 407L369 280L493 103Q530 51 543 42Q552 35 568 30L581 27V0H279V27L302 31Q329 37 329 58Q329 74 303 114L237 212H234L181 124Q155 82 155 60T189 31L209 27V0H9Z" />
<glyph unicode="y" glyph-name="y" horiz-adv-x="558" d="M122 -208Q77 -208 48 -188T19 -134Q19 -107 36 -91T82 -75T126 -86T149 -126Q154 -146 168 -146Q185 -146 203 -123T246 -42L257 -16L71 407Q49 455 40 468T14 487L-4 493V519H291V493L264 486Q233 477
233 447Q233 425 247 391L335 168H339L423 391Q437 428 437 451Q437 477 405 486L377 493V519H563V493L540 485Q522 479 513 465T482 397L296 -51Q279 -91 265 -116T231 -164T184 -197T122 -208Z" />
<glyph unicode="z" glyph-name="z" horiz-adv-x="489" d="M12 0V43L297 473V477H249Q194 477 174 472T135 447Q111 421 65 342H38L49 519H474V479L190 46V42H239Q307 42 332 49T376 80Q413 126 444 184H472L456 0H12Z" />
<glyph unicode="{" glyph-name="braceleft" horiz-adv-x="360" d="M335 -129Q242 -123 191 -106T123 -65T107 -3Q107 25 129 119T152 231Q152 255 129 268T42 285V323Q106 326 129 340T152 377Q152 395 130 488T107 609Q107 667 153 697T335 736V706Q260 696 241
681T222 618Q222 584 232 509T242 410Q242 365 214 342T105 306V302Q187 291 214 268T242 199Q242 174 232 98T222 -12Q222 -59 241 -74T335 -99V-129Z" />
<glyph unicode="|" glyph-name="bar" horiz-adv-x="222" d="M85 -130V734H137V-130H85Z" />
<glyph unicode="}" glyph-name="braceright" horiz-adv-x="360" d="M39 -129V-99Q114 -89 133 -74T152 -12Q152 22 142 98T131 198Q131 243 160 266T269 302V306Q187 317 159 340T131 409Q131 434 141 509T152 618Q152 665 133 680T39 706V736Q174 728 220 698T267
609Q267 581 245 488T222 377Q222 353 245 340T332 323V285Q268 282 245 269T222 231Q222 213 244 119T267 -3Q267 -41 251 -64T184 -105T39 -129Z" />
<glyph unicode="~" glyph-name="asciitilde" horiz-adv-x="387" d="M54 231L29 244Q54 307 74 334T126 362Q150 362 207 345T284 327Q310 327 336 369L361 357Q336 293 317 266T264 238Q240 238 183 255T105 273Q90 273 80 264T54 231Z" />
</font>
</defs>
</svg>
