<?xml version="1.0" standalone="no"?> <!DOCTYPE svg PUBLIC "-//W3C//DTD SVG 1.0//EN" "http://www.w3.org/TR/2001/REC-SVG-20010904/DTD/svg10.dtd" > <svg xmlns="http://www.w3.org/2000/svg" width="100%" height="100%">
<defs >
<font horiz-adv-x="562" ><font-face
    font-family="Publico Text"
    units-per-em="1000"
    panose-1="2 4 5 2 6 5 4 6 2 3"
    ascent="781"
    descent="-219"
    alphabetic="0" />
<missing-glyph horiz-adv-x="510" />
<glyph unicode=" " glyph-name="space" horiz-adv-x="251" />
<glyph unicode="!" glyph-name="exclam" horiz-adv-x="281" d="M122 209L75 623Q71 661 90 681T140 702T189 682T205 623L158 209H122ZM140 -6Q110 -6 89 14T68 64T89 114T140 135Q171 135 192 114T213 64T192 15T140 -6Z" />
<glyph unicode="&quot;" glyph-name="quotedbl" horiz-adv-x="350" d="M238 434L203 631Q196 668 212 686T255 704Q281 704 298 686T308 631L268 434H238ZM82 434L43 631Q35 668 51 686T95 704Q121 704 137 686T148 631L112 434H82Z" />
<glyph unicode="#" glyph-name="numbersign" horiz-adv-x="543" d="M86 0L127 196H39L51 270H143L175 426H88L100 500H192L233 693H285L245 500H363L404 693H457L416 500H505L493 426H400L367 270H456L444 196H351L310 0H257L298 196H179L139 0H86ZM196 270H314L347
426H228L196 270Z" />
<glyph unicode="$" glyph-name="dollar" horiz-adv-x="512" d="M227 -140V-12Q123 -8 70 27T17 115Q17 137 32 150T68 164Q99 164 112 150T129 90Q132 59 150 46T227 31V310Q125 354 83 401T40 519Q40 589 93 640T227 699V784H275V700Q364 697 411 664T459 591Q459
568 444 554T405 539Q375 539 364 554T348 610Q345 636 331 646T275 658V401Q384 352 428 305T473 186Q473 103 418 50T275 -12V-140H227ZM382 154Q382 198 359 228T275 289V32Q382 43 382 154ZM125 594T125 551T147 480T227 423V656Q177 649 151 622Z" />
<glyph unicode="%" glyph-name="percent" horiz-adv-x="788" d="M195 348Q134 348 84 392T34 519Q34 606 86 654T198 703T308 658T359 529Q359 444 307 396T195 348ZM104 -50L609 714H668L163 -50H104ZM590 -14Q529 -14 479 30T429 157Q429 244 481 292T593 341T703
296T754 167Q754 82 702 34T590 -14ZM196 383Q274 383 274 519Q274 668 196 668Q120 668 120 530Q120 383 196 383ZM591 21Q668 21 668 157Q668 306 591 306Q515 306 515 168Q515 21 591 21Z" />
<glyph unicode="&amp;" glyph-name="ampersand" horiz-adv-x="688" d="M266 -13Q197 -13 148 4T73 51T36 112T25 179Q25 249 70 297T196 388Q138 464 138 537Q138 612 191 658T309 705Q376 705 426 670T476 569Q476 513 435 473T310 394Q388 279 481 164Q525 239
525 295Q525 315 517 323T491 336L459 342V372H663V342L632 334Q616 330 608 320T585 281Q583 276 569 243T542 184T511 129Q543 90 564 67Q583 46 604 42L651 31V0H493Q484 9 449 52Q368 -13 266 -13ZM289 424Q342 455 365 485T388 563Q388 660 309 660Q269 660
248 637T226 574Q226 511 289 424ZM289 36Q371 36 418 85Q307 219 216 357Q140 295 140 199Q140 125 178 81T289 36Z" />
<glyph unicode="&apos;" glyph-name="quotesingle" horiz-adv-x="187" d="M79 434L41 631Q35 668 51 686T94 704T136 686T146 631L109 434H79Z" />
<glyph unicode="(" glyph-name="parenleft" horiz-adv-x="329" d="M293 -141Q50 50 50 305Q50 439 121 552T293 745L319 717Q243 637 196 536T149 322Q149 177 194 74T319 -113L293 -141Z" />
<glyph unicode=")" glyph-name="parenright" horiz-adv-x="329" d="M36 745Q279 554 279 300Q279 166 208 52T36 -141L10 -113Q86 -33 133 68T180 282Q180 427 135 530T10 717L36 745Z" />
<glyph unicode="*" glyph-name="asterisk" horiz-adv-x="427" d="M104 374Q86 387 85 406T106 446L198 516L82 527Q54 531 44 547T41 582Q48 600 65 606T108 598L201 540L174 647Q166 675 179 689T214 704Q235 704 247 690T252 647L225 540L319 598Q345 612 362
606T386 579Q392 560 382 546T345 527L229 516L320 446Q343 426 341 406T321 374Q307 362 288 367T257 399L215 502L169 399Q157 373 138 367T104 374Z" />
<glyph unicode="+" glyph-name="plus" horiz-adv-x="469" d="M202 131V310H41V366H202V545H267V366H428V310H267V131H202Z" />
<glyph unicode="," glyph-name="comma" horiz-adv-x="311" d="M53 -161L42 -133Q171 -78 171 14Q160 3 140 3Q110 3 93 21T76 69T97 116T150 135Q191 135 216 108T242 28Q242 -32 195 -85T53 -161Z" />
<glyph unicode="-" glyph-name="hyphen" horiz-adv-x="284" d="M33 254L42 328H252L243 254H33Z" />
<glyph unicode="." glyph-name="period" horiz-adv-x="297" d="M148 -6Q118 -6 97 14T76 64T97 114T148 135Q179 135 200 114T221 64T200 15T148 -6Z" />
<glyph unicode="/" glyph-name="slash" horiz-adv-x="386" d="M3 -130L304 734H364L62 -130H3Z" />
<glyph unicode="0" glyph-name="zero" horiz-adv-x="642" d="M367 -12T318 -12T222 7T133 66T66 175T40 335Q40 429 66 503T135 619T226 683T324 705T420 685T509 625T576 515T602 354Q602 261 576 188T507 72T416 9ZM154 35T321 35T488 335Q488 659 321 659T154
354Q154 35 321 35Z" />
<glyph unicode="1" glyph-name="one" horiz-adv-x="360" d="M38 0V31L96 40Q116 43 123 54T130 100V569H36V600Q102 613 139 635T214 700L240 697V100Q240 64 245 54T271 40L324 31V0H38Z" />
<glyph unicode="2" glyph-name="two" horiz-adv-x="517" d="M21 0V53Q156 162 236 250Q307 329 336 381T365 514Q365 590 330 627T241 664Q199 664 184 653T165 616Q157 546 103 546Q74 546 60 561T45 603Q45 645 100 675T251 705Q351 705 414 654T477 507Q477
454 450 401T369 292T262 194T128 92V88H359Q400 88 416 100T458 166H486L470 0H21Z" />
<glyph unicode="3" glyph-name="three" horiz-adv-x="529" d="M208 -12Q119 -12 68 15T16 90Q16 111 31 128T72 146Q118 146 134 100Q136 94 139 83T143 68T147 57T153 47T159 41T167 35T179 33T195 31T216 30Q288 30 323 75T358 194Q358 265 325 301T213 337H158V383H203Q274
383 306 418T339 527Q339 595 308 629T217 664Q184 664 172 655T156 613Q149 549 97 549Q70 549 56 566T41 604Q41 651 99 678T233 705Q335 705 391 658T447 539Q447 478 406 432T278 366V363Q371 353 421 309T471 190Q471 106 403 47T208 -12Z" />
<glyph unicode="4" glyph-name="four" horiz-adv-x="566" d="M248 0V31L294 40Q312 43 318 53T325 100V199H23V244L375 693H428V259H538L527 199H428V100Q428 63 433 54T460 40L508 31V0H248ZM90 259H325V556H322L90 261V259Z" />
<glyph unicode="5" glyph-name="five" horiz-adv-x="526" d="M221 -12Q141 -12 89 14T37 89Q37 110 52 128T94 146Q122 146 137 133T159 86Q166 50 177 40T225 30Q307 30 348 73T389 195Q389 277 340 315T208 353Q139 353 89 335L82 341L121 693H385Q404 693 413
701T440 745H469L451 605H163L140 431Q190 444 237 444Q341 444 411 389T481 225Q481 119 405 54T221 -12Z" />
<glyph unicode="6" glyph-name="six" horiz-adv-x="572" d="M299 -12Q186 -12 113 70T40 294Q40 398 70 480T151 609T258 681T376 705Q444 705 486 684T529 622Q529 599 515 584T475 569Q447 569 433 582T410 626Q405 646 395 655T357 664Q285 664 224 590T155
364Q228 422 322 422Q415 422 473 365T532 210Q532 110 463 49T299 -12ZM300 35Q369 35 395 73T422 197Q422 369 291 369Q215 369 154 326Q153 309 153 301Q153 245 157 205T176 123T221 58T300 35Z" />
<glyph unicode="7" glyph-name="seven" horiz-adv-x="499" d="M117 0Q161 181 235 325T408 606H120Q93 606 84 595T55 538H25L43 693H482V643Q381 496 321 347T228 0H117Z" />
<glyph unicode="8" glyph-name="eight" horiz-adv-x="549" d="M274 -13Q179 -13 106 33T33 165Q33 271 187 354V357Q126 391 95 430T64 523Q64 600 125 652T278 705Q363 705 425 663T487 546Q487 454 353 373V370Q436 323 474 284T512 185Q512 104 445 46T274
-13ZM322 393Q345 415 359 432T386 479T400 543Q400 601 367 630T274 659Q217 659 184 630T150 555Q150 530 164 507T207 463T259 427T322 393ZM280 34Q346 34 383 66T421 153Q421 166 418 178T407 203T392 224T370 244T345 263T315 282T285 299T251 318T217 336Q192
315 175 298T141 246T124 174Q124 105 166 70T280 34Z" />
<glyph unicode="9" glyph-name="nine" horiz-adv-x="572" d="M273 704Q386 704 459 622T532 398Q532 193 439 90T207 -13Q139 -13 96 8T53 70Q53 93 67 108T108 123Q136 123 150 110T173 66Q178 46 188 37T226 28Q402 28 417 328Q344 270 249 270Q156 270 98 327T40
483Q40 583 109 643T273 704ZM272 657Q203 657 177 619T150 496Q150 323 281 323Q357 323 418 366Q419 383 419 391Q419 447 415 487T396 569T351 634T272 657Z" />
<glyph unicode=":" glyph-name="colon" horiz-adv-x="306" d="M183 324T153 324T102 344T81 394T102 443T153 464T204 444T225 394T204 345ZM183 -6T153 -6T102 14T81 64T102 114T153 135T204 114T225 64T204 15Z" />
<glyph unicode=";" glyph-name="semicolon" horiz-adv-x="307" d="M183 324T153 324T102 344T81 394T102 443T153 464T204 444T225 394T204 345ZM55 -161L44 -133Q173 -78 173 14Q162 3 142 3Q112 3 95 21T78 69T99 116T152 135Q193 135 218 108T244 28Q244 -32
197 -85T55 -161Z" />
<glyph unicode="&lt;" glyph-name="less" horiz-adv-x="469" d="M424 109L45 280V346L424 516V455L100 313L424 171V109Z" />
<glyph unicode="=" glyph-name="equal" horiz-adv-x="500" d="M41 369V426H459V369H41ZM41 207V263H459V207H41Z" />
<glyph unicode="&gt;" glyph-name="greater" horiz-adv-x="469" d="M45 516L424 346V280L45 109V170L369 312L45 454V516Z" />
<glyph unicode="?" glyph-name="question" horiz-adv-x="449" d="M149 202V367Q315 420 315 547Q315 603 283 633T204 664Q175 664 165 657T150 623Q141 563 92 563Q65 563 52 578T39 615Q39 658 82 681T186 705Q287 705 345 657T403 514Q403 434 348 379T201
294V202H149ZM176 -6Q146 -6 125 14T104 64T125 114T176 135Q207 135 228 114T249 64T228 15T176 -6Z" />
<glyph unicode="@" glyph-name="at" horiz-adv-x="907" d="M426 -163Q253 -163 146 -61T38 205Q38 401 176 538T507 676Q669 676 769 591T870 365Q870 294 852 237T806 144T742 84T672 49T604 39Q545 39 525 67T508 148H504Q440 41 353 41Q310 41 283 71T255 156Q255
294 339 391T509 488Q561 488 603 458H607L644 486L663 477Q647 442 633 374L599 187Q589 135 596 113T635 91Q704 91 752 154T801 330Q801 474 727 553T507 632Q394 632 304 576T167 429T120 233Q120 71 203 -21T454 -113Q577 -113 698 -59V-98Q586 -163 426 -163ZM390
102Q439 102 511 207L552 414Q537 438 522 444Q513 447 502 447Q445 447 396 364T347 170Q347 132 357 117T390 102Z" />
<glyph unicode="A" glyph-name="A" horiz-adv-x="667" d="M1 0V31L31 38Q54 44 66 59T98 128L301 693H361L574 117Q587 85 597 69T615 47T638 38L666 31V0H415V31L443 38Q463 43 470 49T478 67Q478 80 462 126L423 233H191L155 126Q142 87 142 72T150 50T178 38L212
31V0H1ZM302 560L206 278H407L307 560H302Z" />
<glyph unicode="B" glyph-name="B" horiz-adv-x="624" d="M31 0V31L76 40Q95 43 101 53T108 100V594Q108 630 102 640T76 654L31 663V693H306Q552 693 552 530Q552 398 382 368V364Q589 347 589 195Q589 102 520 51T331 0H31ZM217 382H303Q369 382 405 415T442
510Q442 590 409 619T297 649Q244 649 217 643V382ZM321 44Q473 44 473 181Q473 263 437 300T317 337H217V122Q217 70 234 57T321 44Z" />
<glyph unicode="C" glyph-name="C" horiz-adv-x="630" d="M365 -12Q215 -12 127 74T39 341Q39 438 66 510T143 623T253 685T388 705Q496 705 577 681L586 483H551Q514 581 486 622Q470 645 449 652T376 659Q263 659 209 592T155 360Q155 182 205 108T362 34Q425
34 451 47T499 91Q532 141 557 212H589L579 32Q487 -12 365 -12Z" />
<glyph unicode="D" glyph-name="D" horiz-adv-x="705" d="M31 0V31L76 40Q95 43 101 53T108 100V594Q108 630 102 640T76 654L31 663V693H328Q403 693 462 676T569 620T643 514T669 353Q669 182 575 91T322 0H31ZM315 42Q447 42 501 117T555 334Q555 501 499 576T313
651Q249 651 217 642V139Q217 76 232 59T315 42Z" />
<glyph unicode="E" glyph-name="E" horiz-adv-x="617" d="M31 0V31L76 40Q95 43 101 53T108 100V594Q108 630 102 640T76 654L31 663V693H548L561 516H525Q497 582 477 610Q457 637 435 643T341 649Q253 649 217 640V383H261Q323 383 347 388T382 414Q396 442
407 483H442V237H407Q391 284 382 306Q372 328 352 332T261 337H217V152Q217 121 217 107T223 77T234 58T258 49T294 44T350 44Q422 44 444 49T487 81Q513 115 547 209H584L569 0H31Z" />
<glyph unicode="F" glyph-name="F" horiz-adv-x="587" d="M31 0V31L76 40Q95 43 101 53T108 100V594Q108 630 102 640T76 654L31 663V693H541L551 506H514Q481 590 464 612Q444 639 423 644T328 649Q257 649 217 642V371H239Q307 371 332 377T367 400Q385 429
396 474H430V216H396Q384 264 365 299Q355 317 335 321T239 325H217V100Q217 63 222 54T249 41L308 31V0H31Z" />
<glyph unicode="G" glyph-name="G" horiz-adv-x="690" d="M381 -12Q219 -12 129 76T39 341Q39 438 67 510T144 624T255 685T388 705Q507 705 588 686L602 487H566Q543 556 506 611Q487 640 467 648T382 657Q266 657 210 589T153 365Q153 190 205 114T379 37Q453
37 501 60V198Q501 234 495 243T469 257L421 267V298H676V267L641 259Q622 254 616 244T610 198V23Q486 -12 381 -12Z" />
<glyph unicode="H" glyph-name="H" horiz-adv-x="741" d="M31 0V31L76 40Q95 43 101 53T108 100V594Q108 630 102 640T76 654L31 663V693H297V663L249 654Q228 649 223 640T217 594V376H523V594Q523 630 518 639T492 654L444 663V693H710V663L664 654Q644 650
638 640T632 594V100Q632 64 638 54T664 40L710 31V0H444V31L492 40Q513 44 518 53T523 100V330H217V100Q217 63 222 54T249 40L297 31V0H31Z" />
<glyph unicode="I" glyph-name="I" horiz-adv-x="333" d="M31 0V31L80 40Q100 43 106 53T112 100V594Q112 630 106 640T80 654L31 663V693H303V663L253 654Q232 650 227 641T221 594V100Q221 63 226 54T253 40L303 31V0H31Z" />
<glyph unicode="J" glyph-name="J" horiz-adv-x="311" d="M21 -163Q-34 -163 -64 -143T-94 -89Q-94 -68 -80 -54T-39 -39Q-10 -39 3 -53T24 -98Q28 -110 30 -113T37 -119T52 -122Q108 -122 108 -26V594Q108 630 103 639T76 654L28 663V693H295V663L249 654Q229
650 223 640T217 594V59Q217 -41 167 -102T21 -163Z" />
<glyph unicode="K" glyph-name="K" horiz-adv-x="658" d="M494 0Q357 151 250 344V357L433 567Q469 606 469 626T431 655L397 663V693H628V663L612 658Q587 652 570 638T513 582L338 392Q383 313 450 220T576 62Q592 45 609 41L656 31V0H494ZM31 0V31L76 40Q95
43 101 53T108 100V594Q108 630 102 640T76 654L31 663V693H297V663L249 654Q228 649 223 640T217 594V100Q217 63 222 54T249 40L297 31V0H31Z" />
<glyph unicode="L" glyph-name="L" horiz-adv-x="584" d="M31 0V31L76 40Q95 43 101 53T108 100V594Q108 630 102 640T76 654L31 663V693H301V663L249 653Q228 649 223 640T217 594V142Q217 103 218 87T232 59T264 46T328 44Q394 44 419 53T467 94Q505 147 527
220H565L552 0H31Z" />
<glyph unicode="M" glyph-name="M" horiz-adv-x="853" d="M31 0V31L66 38Q90 43 99 55T108 110V594Q108 630 102 640T76 654L31 663V693H248L432 165H435L613 693H822V663L776 654Q757 650 751 640T745 594V100Q745 64 750 54T776 40L822 31V0H567V31L609 40Q630
45 635 54T640 100V630H636L435 16H383L166 630H162V110Q162 67 169 55T204 38L241 31V0H31Z" />
<glyph unicode="N" glyph-name="N" horiz-adv-x="705" d="M549 -4L166 603H162V110Q162 67 169 55T204 38L246 31V0H31V31L66 38Q90 43 99 55T108 110V594Q108 630 102 640T76 654L31 663V693H234L548 189H552V584Q552 628 544 640T510 656L463 663V693H683V663L648
656Q624 651 615 639T606 584V-4H549Z" />
<glyph unicode="O" glyph-name="O" horiz-adv-x="714" d="M352 -12Q215 -12 127 79T39 337Q39 519 132 612T362 705T586 611T675 351Q675 257 649 186T576 72T473 9T352 -12ZM360 37Q465 37 513 106T561 334Q561 398 551 452T519 555T454 630T353 657Q249 657
201 586T153 354Q153 290 163 237T195 137T260 64T360 37Z" />
<glyph unicode="P" glyph-name="P" horiz-adv-x="593" d="M31 0V31L76 40Q95 43 101 53T108 100V594Q108 629 104 639T86 651L31 663V693H315Q437 693 501 641T565 492Q565 397 502 334T344 270Q291 270 273 283V313Q366 308 409 346T452 482Q452 571 419 610T309
649Q243 649 217 642V100Q217 62 222 53T249 40L308 31V0H31Z" />
<glyph unicode="Q" glyph-name="Q" horiz-adv-x="714" d="M606 -167Q554 -167 516 -155T430 -114Q393 -91 288 -6Q173 16 106 105T39 337Q39 431 66 503T139 619T241 684T362 706Q498 706 586 612T675 351Q675 201 611 114T437 -1V-4Q483 -41 529 -68Q605 -112
679 -112Q707 -112 752 -95V-121Q699 -167 606 -167ZM360 37Q465 37 513 106T561 334Q561 399 551 453T519 555T454 630T353 658Q249 658 201 586T153 354Q153 290 163 237T195 137T260 64T360 37Z" />
<glyph unicode="R" glyph-name="R" horiz-adv-x="652" d="M31 0V31L76 40Q95 43 101 53T108 100V594Q108 630 102 640T76 654L31 663V693H322Q556 693 556 517Q556 460 514 413T397 344V341Q496 170 578 65Q592 47 630 37L652 31V0H500Q387 145 302 313H215V100Q215
64 221 54T249 40L297 31V0H31ZM275 359Q364 359 403 394T443 507Q443 594 413 621T309 649Q246 649 215 642V363Q247 359 275 359Z" />
<glyph unicode="S" glyph-name="S" horiz-adv-x="526" d="M242 -13Q142 -13 46 17L35 204H72Q108 120 132 86Q152 57 177 47T252 36Q318 36 356 70T394 153Q394 201 358 234T227 311Q131 354 90 399T48 517Q48 599 109 652T270 706Q372 706 435 688L448 520H412Q380
593 360 619Q343 639 323 648T263 658Q206 658 168 627T130 548Q130 504 158 476T272 410Q387 358 435 313T484 204Q484 109 421 48T242 -13Z" />
<glyph unicode="T" glyph-name="T" horiz-adv-x="619" d="M174 0V31L223 40Q243 44 249 54T255 100V651H248Q168 651 147 644T104 599Q86 567 58 481H21L31 693H588L598 481H561Q533 567 515 599Q493 637 472 644T371 651H364V100Q364 63 369 54T396 40L445 31V0H174Z" />
<glyph unicode="U" glyph-name="U" horiz-adv-x="701" d="M356 -12Q231 -12 163 46T94 225V594Q94 630 88 640T62 654L16 663V693H278V663L235 654Q214 649 209 640T203 594V215Q203 127 244 87T382 46Q554 46 554 224V584Q554 628 546 640T512 656L462 663V693H684V663L649
656Q625 651 616 639T607 584V217Q607 117 545 53T356 -12Z" />
<glyph unicode="V" glyph-name="V" horiz-adv-x="664" d="M304 0L97 564Q76 619 66 634T32 656L7 663V693H260V663L231 656Q197 648 197 622Q197 601 213 555L362 133H367L508 555Q522 597 522 618Q522 649 485 656L451 663V693H657V663L629 656Q608 650 599 635T566
553L370 0H304Z" />
<glyph unicode="W" glyph-name="W" horiz-adv-x="962" d="M276 0L99 564Q80 619 70 635T37 656L10 663V693H262V663L230 656Q198 649 198 619Q198 603 212 555L335 143H340L464 509L446 564Q428 617 417 634T383 656L356 663V693H607V663L575 656Q541 649 541
619Q541 596 554 555L688 143H693L804 555Q816 599 816 621Q816 649 785 656L751 663V693H953V663L922 656Q900 651 889 630T859 546L700 0H630L492 430H488L342 0H276Z" />
<glyph unicode="X" glyph-name="X" horiz-adv-x="680" d="M28 0V31L57 37Q77 41 90 55T138 119L281 336L124 584Q105 615 98 624T81 643T56 656L28 663V693H295V663L258 656Q233 651 233 628Q233 612 257 573L361 403H364L466 583Q484 611 484 631T462 656L427
663V693H626V663L597 656Q578 651 564 636T521 575L393 368L554 116Q558 110 565 99T574 83T582 71T591 60T598 52T606 45T615 40T625 37L652 31V0H390V31L423 36Q453 40 453 61Q453 74 426 119L313 300H310L192 111Q171 76 171 64Q171 41 195 36L223 31V0H28Z"
/>
<glyph unicode="Y" glyph-name="Y" horiz-adv-x="630" d="M186 0V31L235 40Q254 44 260 54T266 100V280L109 567Q82 615 67 632T30 656L5 663V693H268V663L243 657Q201 648 201 621Q201 609 223 567L343 337H347L463 567Q480 602 480 621Q480 647 444 656L412
663V693H626V663L604 656Q577 647 560 628T514 553L375 288V100Q375 63 380 54T407 40L456 31V0H186Z" />
<glyph unicode="Z" glyph-name="Z" horiz-adv-x="571" d="M24 0V44L410 646V650H340Q216 650 182 643T128 606Q103 569 75 497H43L53 693H523V650L141 47V43H195Q324 43 367 50T430 85Q449 112 490 213H522L509 0H24Z" />
<glyph unicode="[" glyph-name="bracketleft" horiz-adv-x="360" d="M107 -130V734H324V704L233 693Q209 690 203 680T196 630V-26Q196 -65 202 -75T233 -89L324 -100V-130H107Z" />
<glyph unicode="\" glyph-name="backslash" horiz-adv-x="386" d="M324 -130L23 734H82L384 -130H324Z" />
<glyph unicode="]" glyph-name="bracketright" horiz-adv-x="360" d="M253 734V-130H36V-100L126 -89Q151 -86 157 -76T164 -26V630Q164 669 158 679T126 693L36 704V734H253Z" />
<glyph unicode="^" glyph-name="asciicircum" horiz-adv-x="417" d="M72 472L51 491L191 703H226L366 491L345 472L209 602L72 472Z" />
<glyph unicode="_" glyph-name="underscore" horiz-adv-x="343" d="M-2 -180V-124H345V-180H-2Z" />
<glyph unicode="`" glyph-name="grave" horiz-adv-x="510" d="M363 593L168 657Q131 669 131 703Q131 719 143 732T172 746Q188 746 211 731L374 617L363 593Z" />
<glyph unicode="a" glyph-name="a" horiz-adv-x="510" d="M179 -13Q108 -13 68 21T27 120Q27 180 69 214T202 270L319 296V389Q319 444 302 465T224 486Q192 486 182 478T169 446Q165 413 153 396T109 379Q56 379 56 429Q56 460 86 482T158 515T245 525Q419 525
419 395V100Q419 62 446 48Q460 41 495 39V11Q462 -12 407 -12Q334 -12 323 46H318Q300 21 261 4T179 -13ZM222 44Q256 44 282 57T319 91V245L242 237Q185 231 157 207T129 128Q129 44 222 44Z" />
<glyph unicode="b" glyph-name="b" horiz-adv-x="582" d="M259 -12Q145 -12 70 25V648Q70 676 65 684T41 701L-2 721V749L167 765L177 757Q170 717 170 640V549L166 465H170Q249 524 344 524Q383 524 417 512T480 474T527 397T545 279Q545 140 466 64T259 -12ZM270
33Q358 33 399 85T440 259Q440 358 402 409T296 461Q228 461 170 427V67Q210 33 270 33Z" />
<glyph unicode="c" glyph-name="c" horiz-adv-x="486" d="M270 -12Q157 -12 96 59T34 248Q34 310 52 359T98 438T165 489T242 517T319 525Q389 525 424 503T460 441Q460 416 443 396T401 376Q374 376 362 389T345 430Q340 463 330 472T293 482Q225 482 183 434T140
284Q140 171 184 112T312 52Q387 52 466 95V55Q437 29 385 9T270 -12Z" />
<glyph unicode="d" glyph-name="d" horiz-adv-x="597" d="M239 -12Q155 -12 97 48T38 239Q38 377 120 450T320 524Q375 524 415 512Q412 552 412 588V648Q412 676 407 684T382 701L340 721V749L508 765L518 757Q512 717 512 640V115Q512 83 517 73T542 53L579
36V9L420 -12L413 -6L418 47H414Q335 -12 239 -12ZM294 56Q311 56 326 58T356 65T377 72T398 82L412 89V438Q368 480 313 480Q230 480 187 428T143 259Q143 56 294 56Z" />
<glyph unicode="e" glyph-name="e" horiz-adv-x="519" d="M281 -12Q160 -12 97 61T34 260Q34 377 106 451T281 525Q381 525 433 465T485 270H140Q142 160 188 106T314 52Q349 52 383 60T431 74T475 94V54Q394 -12 281 -12ZM277 483Q220 483 184 440T141 312L373
324Q373 413 353 448T277 483Z" />
<glyph unicode="f" glyph-name="f" horiz-adv-x="319" d="M25 0V30L66 41Q82 45 87 55T93 93V456H22V486L93 510V565Q93 657 155 712T317 767Q410 767 410 704Q410 685 397 670T361 655Q306 655 299 705Q297 720 293 725T279 730Q245 730 219 703T193 618V509H310L295
456H193V98Q193 64 198 54T219 41L273 30V0H25Z" />
<glyph unicode="g" glyph-name="g" horiz-adv-x="508" d="M210 -224Q110 -224 52 -191T-7 -104Q-7 -67 23 -36T108 14V18Q41 42 41 101T118 214V218Q85 233 59 269T33 350Q33 433 92 478T231 524Q287 524 337 504Q402 558 462 558Q486 558 501 546T517 511Q517
491 506 477T475 462Q443 462 430 492Q422 513 362 481V478Q430 438 430 359Q430 276 371 233T231 189Q187 189 153 204Q118 182 118 149Q118 129 134 116T181 103H339Q409 103 446 75T484 -24Q484 -56 470 -88T426 -152T340 -204T210 -224ZM231 230Q280 230 304
257T328 347Q328 484 231 484Q135 484 135 362Q135 291 159 261T231 230ZM227 -182Q302 -182 356 -148T410 -65Q410 -28 391 -8T320 12H166Q138 5 112 -23T86 -88Q86 -182 227 -182Z" />
<glyph unicode="h" glyph-name="h" horiz-adv-x="604" d="M25 0V30L66 41Q82 45 87 55T93 93V648Q93 676 88 684T63 701L20 721V749L190 765L200 757Q193 707 193 640V549L188 461H192Q290 524 381 524Q455 524 486 492T517 391V93Q517 65 523 55T544 41L584 30V0H350V30L391
41Q407 45 412 54T417 93V363Q417 415 398 436T330 458Q275 458 193 427V93Q193 63 198 54T219 41L260 30V0H25Z" />
<glyph unicode="i" glyph-name="i" horiz-adv-x="279" d="M139 614Q111 614 91 634T71 679Q71 706 91 725T139 744T186 725T206 679Q206 654 186 634T139 614ZM25 0V30L66 41Q82 45 87 55T93 93V403Q93 432 88 439T63 457L25 476V502L190 523L200 517Q193 476
193 405V93Q193 63 198 54T219 41L260 30V0H25Z" />
<glyph unicode="j" glyph-name="j" horiz-adv-x="271" d="M137 614Q109 614 89 634T69 679Q69 706 89 725T137 744T184 725T204 679Q204 654 184 634T137 614ZM11 -228Q-33 -228 -57 -208T-82 -159Q-82 -139 -67 -126T-29 -112Q17 -112 23 -157Q26 -179 30 -185T42
-191Q65 -191 79 -173T93 -127V403Q93 432 88 439T63 457L25 476V502L190 523L200 517Q193 476 193 400V-22Q193 -129 143 -178T11 -228Z" />
<glyph unicode="k" glyph-name="k" horiz-adv-x="542" d="M25 0V30L66 41Q82 45 87 55T93 93V648Q93 676 88 684T63 701L20 721V749L190 765L200 757Q193 707 193 640V93Q193 63 198 54T219 41L260 30V0H25ZM408 0Q314 100 210 252V267L313 379Q368 442 368 454Q368
469 344 476L329 481V509H516V480L485 470Q442 456 394 408L292 298Q386 158 481 58Q492 45 508 41L542 30V0H408Z" />
<glyph unicode="l" glyph-name="l" horiz-adv-x="280" d="M25 0V30L66 41Q82 45 87 55T93 93V648Q93 676 88 684T63 701L20 721V749L190 765L200 757Q193 707 193 640V93Q193 63 198 54T219 41L260 30V0H25Z" />
<glyph unicode="m" glyph-name="m" horiz-adv-x="896" d="M25 0V30L66 41Q82 45 87 55T93 93V403Q93 432 88 439T63 457L25 476V502L183 523L193 515L188 461H192Q290 524 372 524Q424 524 451 508T493 459H497Q609 524 687 524Q752 524 780 492T809 390V93Q809
65 814 55T835 41L876 30V0H641V30L682 41Q699 45 704 54T709 93V362Q709 414 692 436T631 458Q572 458 501 425V93Q501 65 506 55T527 41L568 30V0H333V30L374 41Q391 45 396 54T401 93V362Q401 413 384 435T323 458Q268 458 193 427V93Q193 63 198 54T219 41L260
30V0H25Z" />
<glyph unicode="n" glyph-name="n" horiz-adv-x="605" d="M25 0V30L66 41Q82 45 87 55T93 93V403Q93 432 88 439T63 457L25 476V502L183 523L193 517L188 461H192Q290 524 381 524Q455 524 486 492T517 391V93Q517 65 523 55T544 41L584 30V0H350V30L391 41Q407
45 412 54T417 93V363Q417 415 398 436T330 458Q275 458 193 427V93Q193 63 198 54T219 41L260 30V0H25Z" />
<glyph unicode="o" glyph-name="o" horiz-adv-x="573" d="M287 -13Q175 -13 105 57T34 255Q34 380 108 452T287 525Q399 525 469 457T539 261Q539 135 465 61T287 -13ZM291 30Q429 30 429 247Q429 372 394 427T283 483Q144 483 144 269Q144 144 180 87T291 30Z" />
<glyph unicode="p" glyph-name="p" horiz-adv-x="605" d="M25 -219V-190L66 -179Q82 -175 87 -166T93 -127V403Q93 432 88 439T63 457L25 476V502L183 523L193 517L189 465H193Q272 524 366 524Q405 524 439 512T502 474T549 397T567 279Q567 139 490 64T279 -12Q234
-12 190 1Q193 -29 193 -63V-127Q193 -158 198 -167T219 -179L273 -190V-219H25ZM291 33Q379 33 420 85T462 259Q462 360 422 410T306 461Q293 461 280 459T257 455T237 448T220 441T205 433T193 427V70Q235 33 291 33Z" />
<glyph unicode="q" glyph-name="q" horiz-adv-x="588" d="M331 -219V-202L385 -191Q402 -188 407 -179T412 -139V-21L415 46H411Q334 -12 239 -12Q155 -12 97 48T38 239Q38 377 120 450T320 524Q395 524 456 489H460L491 527L512 522V-139Q512 -167 517 -176T538
-191L579 -202V-219H331ZM294 51Q311 51 326 53T355 60T377 68T397 78T412 86V438Q368 480 313 480Q230 480 187 428T143 259Q143 51 294 51Z" />
<glyph unicode="r" glyph-name="r" horiz-adv-x="421" d="M25 0V30L66 41Q82 45 87 55T93 93V403Q93 432 88 439T63 457L25 476V502L183 523L193 515L188 457H192Q220 485 261 505T339 525Q370 525 387 509T405 465Q405 438 390 424T351 409Q325 409 313 416T294
441Q287 458 271 458Q256 458 232 444T193 414V93Q193 63 198 54T219 41L270 30V0H25Z" />
<glyph unicode="s" glyph-name="s" horiz-adv-x="425" d="M190 -12Q97 -12 38 10L33 159H65Q94 93 113 69Q146 31 200 31Q247 31 275 53T304 113T279 172T186 221Q114 249 76 284T38 375Q38 443 91 484T226 525Q309 525 357 507L361 373H331Q308 419 280 456Q258
483 214 483Q119 483 119 403Q119 375 146 353T236 306Q314 276 353 242T392 154Q392 82 337 35T190 -12Z" />
<glyph unicode="t" glyph-name="t" horiz-adv-x="339" d="M196 -12Q145 -12 113 13T80 93V456H10V485Q60 499 90 534T141 632H180V509H324L311 456H180V108Q180 46 248 46Q280 46 327 60V28Q285 -12 196 -12Z" />
<glyph unicode="u" glyph-name="u" horiz-adv-x="598" d="M224 -12Q160 -12 125 22T89 119V413Q89 439 85 446T62 461L21 479V506L174 523L189 513V142Q189 53 275 53Q327 53 413 90V413Q413 440 409 446T386 461L346 479V506L499 523L513 513V115Q513 83 518
73T543 53L580 36V9L424 -12L413 -4L418 56H414Q311 -12 224 -12Z" />
<glyph unicode="v" glyph-name="v" horiz-adv-x="522" d="M237 0L76 405Q62 440 53 452T22 472L-2 480V509H227V480L200 473Q182 468 177 462T172 441Q172 428 186 389L287 117H291L388 389Q400 424 400 443Q400 466 374 473L346 480V509H525V480L497 472Q493
471 489 470T482 465T476 460T471 453T467 445T462 435T458 424T452 410T446 395L294 0H237Z" />
<glyph unicode="w" glyph-name="w" horiz-adv-x="790" d="M222 0L78 405Q66 439 56 452T24 472L-1 480V509H227V480L200 473Q172 466 172 441Q172 429 186 389L275 117H280L373 383L366 405Q348 462 317 472L293 480V509H506V480L478 473Q456 467 456 441Q456
425 469 389L563 117H567L654 389Q666 425 666 443Q666 466 640 473L612 480V509H790V480L762 472Q743 467 735 453T711 395L570 0H510L399 321H396L282 0H222Z" />
<glyph unicode="x" glyph-name="x" horiz-adv-x="556" d="M27 0V30L56 38Q83 46 101 60T143 111L234 247L119 401Q87 445 73 458T37 476L20 480V509H254V480L229 475Q207 470 207 450Q207 436 233 401L300 307H303L352 387Q382 441 382 452Q382 468 361 473L330
480V509H527V480L498 472Q470 464 454 450T412 397L327 276L451 109Q480 69 496 54T536 33L549 30V0H315V30L341 35Q365 40 365 58Q365 68 336 109L261 217H258L203 121Q172 70 172 57Q172 41 206 34L224 30V0H27Z" />
<glyph unicode="y" glyph-name="y" horiz-adv-x="532" d="M103 -226Q60 -226 39 -207T17 -161Q17 -137 30 -122T66 -107Q108 -107 120 -148Q124 -160 126 -163T136 -166Q154 -166 177 -140T221 -61L245 -4L77 405Q60 445 53 455T25 472L1 480V509H229V480L202
473Q185 468 179 462T173 443Q173 425 188 389L296 121H300L398 389Q410 424 410 447Q410 459 404 464T382 473L354 480V509H535V480L507 472Q490 467 482 454T456 395L275 -59Q243 -141 203 -183T103 -226Z" />
<glyph unicode="z" glyph-name="z" horiz-adv-x="476" d="M25 0V33L335 466V470H252Q192 470 171 464T138 440Q114 405 85 342H54L61 509H454V478L142 43V39H215Q293 39 319 48T363 83Q392 125 413 179H445L433 0H25Z" />
<glyph unicode="{" glyph-name="braceleft" horiz-adv-x="348" d="M312 -130Q199 -126 150 -102T100 -26Q100 2 125 102T151 221Q151 249 127 265T34 285V323Q151 328 151 390Q151 408 126 505T100 630Q100 682 149 706T312 734V704Q238 693 217 681T196 632Q196
587 211 513T226 410Q226 334 108 306V302Q169 291 197 266T226 200Q226 172 211 95T196 -28Q196 -64 217 -76T312 -100V-130Z" />
<glyph unicode="|" glyph-name="bar" horiz-adv-x="254" d="M97 -130V734H157V-130H97Z" />
<glyph unicode="}" glyph-name="braceright" horiz-adv-x="348" d="M36 734Q149 730 198 706T248 630Q248 602 223 505T197 390Q197 328 314 323V285Q246 282 222 266T197 221Q197 203 222 103T248 -26Q248 -78 199 -102T36 -130V-100Q110 -89 131 -77T152 -28Q152
18 137 95T122 201Q122 243 149 267T240 302V306Q122 337 122 411Q122 439 137 513T152 632Q152 668 131 680T36 704V734Z" />
<glyph unicode="~" glyph-name="asciitilde" horiz-adv-x="385" d="M61 225L36 237Q50 267 57 281T77 313T101 338T129 345Q154 345 202 329T268 313Q294 313 324 362L350 350Q335 318 329 306T310 274T285 249T256 242Q231 242 184 258T118 274Q91 274 61 225Z" />
</font>
</defs>
</svg>
